<svg width="35" height="36" viewBox="0 0 35 36" fill="none" xmlns="http://www.w3.org/2000/svg">
<path d="M27.5084 0.0454102H7.96966C3.57461 0.0454102 0.0117188 3.6083 0.0117188 8.00335V27.5421C0.0117188 31.9371 3.57461 35.5 7.96966 35.5H27.5084C31.9034 35.5 35.4663 31.9371 35.4663 27.5421V8.00335C35.4663 3.6083 31.9034 0.0454102 27.5084 0.0454102Z" fill="#0B86CA"/>
<path d="M9.83606 14.7825H13.5203V26.6703H9.83606V14.7825ZM11.715 8.87549C12.1371 8.8755 12.5498 9.00052 12.9009 9.23478C13.252 9.46904 13.5259 9.80205 13.688 10.1918C13.8501 10.5815 13.8931 11.0106 13.8117 11.4247C13.7302 11.8389 13.5279 12.2197 13.2303 12.519C12.9327 12.8183 12.5531 13.0228 12.1394 13.1066C11.7257 13.1905 11.2964 13.1499 10.9057 12.99C10.5151 12.8302 10.1805 12.5582 9.94424 12.2084C9.70797 11.8586 9.58059 11.4467 9.57816 11.0246C9.57654 10.743 9.63062 10.4638 9.73728 10.2031C9.84394 9.94244 10.0011 9.70542 10.1997 9.50569C10.3983 9.30597 10.6344 9.14747 10.8944 9.03931C11.1545 8.93116 11.4334 8.87548 11.715 8.87549Z" fill="white"/>
<path d="M15.8775 14.7821H19.4267V16.4031C19.7819 15.7968 20.2952 15.2984 20.9116 14.961C21.528 14.6236 22.2245 14.4599 22.9267 14.4873C26.6109 14.4873 27.36 16.9435 27.36 20.1488V26.6699H23.6758V20.9225C23.6758 19.547 23.6758 17.7663 21.76 17.7663C19.8442 17.7663 19.5495 19.2646 19.5495 20.8119V26.6944H15.8652L15.8775 14.7821Z" fill="white"/>
</svg>
