<svg width="29" height="30" viewBox="0 0 29 30" fill="none" xmlns="http://www.w3.org/2000/svg">
<path d="M12.4064 0.0526864C5.57811 0.064604 0.0334262 5.76117 0.0456275 12.752C0.0578288 19.7428 5.62236 25.42 12.4506 25.4081C14.538 25.4045 16.5892 24.8938 18.3211 23.9127C18.4602 24.0836 18.6145 24.241 18.7818 24.3828L22.3261 27.9989C22.6534 28.3746 23.0523 28.678 23.4983 28.8902C23.9443 29.1024 24.4279 29.2191 24.9195 29.2331C25.4111 29.247 25.9003 29.158 26.357 28.9714C26.8138 28.7847 27.2284 28.5045 27.5756 28.1479C27.9227 27.7913 28.1949 27.3658 28.3756 26.8975C28.5563 26.4292 28.6416 25.9281 28.6262 25.4248C28.6109 24.9216 28.4952 24.4268 28.2864 23.971C28.0775 23.5152 27.7798 23.1078 27.4117 22.774L23.8674 19.158C23.6947 18.9818 23.5048 18.8243 23.3005 18.6881C24.2526 16.9115 24.8505 14.8458 24.8467 12.6725C24.8345 5.68167 19.27 0.00448504 12.4417 0.0164026L12.4064 0.0526864ZM12.4127 3.67489C17.3305 3.66631 21.2646 7.68011 21.2734 12.715C21.2776 15.1056 20.4323 17.3166 18.9492 18.9492C18.9139 18.9855 18.8786 19.0218 18.8433 19.0581C18.6764 19.2005 18.5227 19.3584 18.3842 19.5298C16.83 20.9814 14.7087 21.8182 12.409 21.8222C7.49122 21.8308 3.55706 17.817 3.54828 12.7821C3.53949 7.74727 7.45961 3.71975 12.3774 3.71117L12.4127 3.67489Z" fill="black"/>
</svg>
