<svg width="60" height="60" viewBox="0 0 60 60" fill="none" xmlns="http://www.w3.org/2000/svg">
<path fill-rule="evenodd" clip-rule="evenodd" d="M37.6933 4.32723C40.1438 1.87669 43.4675 0.5 46.933 0.5C50.3986 0.5 53.7222 1.87669 56.1728 4.32723C58.6233 6.77776 60 10.1014 60 13.567C60 17.0325 58.6233 20.3562 56.1728 22.8067L29.701 49.2785C28.1884 50.791 27.301 51.6785 26.3076 52.4515C25.1411 53.364 23.8797 54.1454 22.5402 54.7816C21.4072 55.3202 20.2128 55.7193 18.1869 56.3946L8.88851 59.4922L6.65044 60.2401C5.76031 60.5372 4.805 60.5805 3.89163 60.3651C2.97827 60.1497 2.14297 59.6842 1.47941 59.0206C0.815849 58.357 0.350262 57.5217 0.134861 56.6084C-0.0805391 55.695 -0.0372353 54.7397 0.259916 53.8496L4.10539 42.3159C4.78072 40.2872 5.17978 39.0928 5.71837 37.957C6.35742 36.6203 7.136 35.3589 8.04854 34.1896C8.81875 33.2018 9.70895 32.3116 11.2215 30.799L37.6933 4.32723ZM8.79084 55.1165L16.719 52.471C18.9264 51.7343 19.864 51.4189 20.7375 51.0031C21.7979 50.4952 22.8025 49.8757 23.7318 49.153C24.4937 48.5558 25.1969 47.8609 26.8434 46.2144L47.9683 25.0894C45.072 24.0631 42.4428 22.4 40.2746 20.2226C38.0991 18.0539 36.4379 15.4248 35.4134 12.5289L14.2884 33.6538C12.6419 35.2975 11.9442 35.998 11.3498 36.7626C10.6272 37.6912 10.0069 38.6952 9.49966 39.7569C9.08386 40.6304 8.76852 41.568 8.03179 43.7754L5.38907 51.7036L8.79084 55.1165ZM38.804 9.13267C38.9016 9.62103 39.0607 10.2852 39.3314 11.0582C40.1475 13.3942 41.4834 15.5144 43.2383 17.259C44.982 19.0135 47.1012 20.3493 49.4362 21.1658C50.212 21.4365 50.8762 21.5956 51.3645 21.6933L53.2119 19.8459C54.8676 18.1786 55.7949 15.9231 55.7908 13.5734C55.7867 11.2237 54.8515 8.97148 53.19 7.31001C51.5285 5.64854 49.2763 4.71331 46.9266 4.7092C44.5769 4.70509 42.3214 5.63243 40.6541 7.28807L38.804 9.13267Z" fill="none"/>
</svg>
