<svg width="16" height="16" viewBox="0 0 16 16" fill="white" xmlns="http://www.w3.org/2000/svg">
<path fill-rule="evenodd" clip-rule="evenodd" d="M13.0369 0.0569875C13.174 0.113757 13.2911 0.2099 13.3736 0.333254C13.456 0.456609 13.5 0.601635 13.4999 0.749987V2.49999H15.2499C15.3982 2.50012 15.5431 2.54418 15.6663 2.6266C15.7895 2.70902 15.8855 2.8261 15.9422 2.96306C15.9989 3.10003 16.0138 3.25073 15.9849 3.39612C15.956 3.54152 15.8847 3.6751 15.7799 3.77999L12.7799 6.77999C12.6394 6.92068 12.4488 6.99981 12.2499 6.99999H11.8729C12.0715 7.76922 12.0365 8.58017 11.7724 9.32944C11.5084 10.0787 11.0271 10.7324 10.3901 11.2071C9.75311 11.6818 8.98916 11.9561 8.19566 11.995C7.40216 12.0339 6.61505 11.8356 5.93468 11.4254C5.25431 11.0152 4.71149 10.4118 4.37542 9.69188C4.03935 8.97201 3.92526 8.16837 4.04768 7.38341C4.17011 6.59844 4.52351 5.86771 5.06283 5.28437C5.60215 4.70103 6.30297 4.2915 7.07593 4.10799C7.26954 4.06197 7.4735 4.09475 7.64294 4.19912C7.81238 4.30348 7.93342 4.47088 7.97943 4.66449C8.02545 4.8581 7.99267 5.06205 7.8883 5.23149C7.78394 5.40093 7.61654 5.52197 7.42293 5.56799C6.92319 5.68632 6.47202 5.95569 6.13075 6.33946C5.78949 6.72324 5.5747 7.2028 5.51558 7.71295C5.45647 8.2231 5.5559 8.73907 5.80035 9.19072C6.04481 9.64237 6.42243 10.0078 6.88187 10.2373C7.34131 10.4667 7.86027 10.5492 8.3682 10.4733C8.87613 10.3975 9.34838 10.167 9.72073 9.81332C10.0931 9.45963 10.3475 8.99985 10.4493 8.49648C10.5512 7.99312 10.4955 7.47061 10.2899 6.99999H10.0599L8.52993 8.52999C8.46127 8.60367 8.37847 8.66278 8.28647 8.70377C8.19447 8.74476 8.09516 8.7668 7.99446 8.76858C7.89375 8.77036 7.79372 8.75183 7.70034 8.71411C7.60695 8.67639 7.52211 8.62024 7.4509 8.54903C7.37968 8.47781 7.32353 8.39297 7.28581 8.29959C7.24809 8.2062 7.22957 8.10617 7.23134 8.00547C7.23312 7.90476 7.25516 7.80545 7.29615 7.71345C7.33714 7.62145 7.39625 7.53865 7.46993 7.46999L8.99993 5.93999V3.74999C9.00011 3.55114 9.07924 3.3605 9.21993 3.21999L12.2199 0.219987C12.3247 0.115096 12.4583 0.0436282 12.6037 0.0146158C12.7491 -0.0143966 12.8999 0.000348371 13.0369 0.0569875ZM10.4999 4.06099V5.49999H11.9399L13.4399 3.99999H11.9999V2.55999L10.4999 4.06099ZM4.81993 2.32999C5.9912 1.673 7.33721 1.39492 8.67293 1.53399C8.7709 1.54416 8.86991 1.53495 8.96432 1.50686C9.05872 1.47877 9.14667 1.43237 9.22313 1.37029C9.2996 1.30821 9.3631 1.23168 9.40999 1.14507C9.45688 1.05846 9.48626 0.963454 9.49643 0.865487C9.50661 0.767521 9.49739 0.66851 9.46931 0.574106C9.44122 0.479703 9.39481 0.391756 9.33274 0.315287C9.27066 0.238818 9.19413 0.175324 9.10752 0.128431C9.0209 0.0815386 8.9259 0.0521649 8.82793 0.0419875C7.1838 -0.129084 5.52705 0.213345 4.08545 1.02219C2.64386 1.83104 1.48821 3.06659 0.777408 4.55896C0.0666016 6.05134 -0.164463 7.72726 0.115983 9.3563C0.39643 10.9853 1.17462 12.4875 2.34355 13.6563C3.51248 14.8251 5.01476 15.603 6.64385 15.8832C8.27293 16.1635 9.94881 15.9322 11.4411 15.2211C12.9334 14.5101 14.1688 13.3543 14.9774 11.9126C15.786 10.4709 16.1282 8.81409 15.9569 7.16999C15.9468 7.07202 15.9174 6.97702 15.8705 6.89041C15.8236 6.80379 15.7601 6.72726 15.6836 6.66518C15.6072 6.60311 15.5192 6.5567 15.4248 6.52862C15.3304 6.50053 15.2314 6.49131 15.1334 6.50149C15.0355 6.51167 14.9405 6.54104 14.8539 6.58793C14.7672 6.63482 14.6907 6.69832 14.6286 6.77479C14.5666 6.85126 14.5201 6.9392 14.4921 7.03361C14.464 7.12801 14.4548 7.22702 14.4649 7.32499C14.5867 8.49172 14.3905 9.66967 13.8971 10.7339C13.4037 11.7982 12.6315 12.7091 11.6623 13.37C10.6932 14.0309 9.56321 14.4173 8.39228 14.4881C7.22134 14.5589 6.05308 14.3114 5.01136 13.7721C3.96965 13.2327 3.09332 12.4214 2.4753 11.4244C1.85728 10.4273 1.5206 9.28156 1.50098 8.10866C1.48135 6.93575 1.77951 5.77939 2.36383 4.7622C2.94815 3.74501 3.79685 2.90492 4.81993 2.33099V2.32999Z" fill="#F2F2F2"/>
</svg>
