<svg width="27" height="27" viewBox="0 0 27 27" fill="none" xmlns="http://www.w3.org/2000/svg">
<path d="M11.1731 2.82959C11.7653 0.390135 15.2347 0.390135 15.8269 2.82959C16.2094 4.40546 18.0149 5.1533 19.3997 4.30951C21.5435 3.00332 23.9967 5.45653 22.6906 7.60025C21.8467 8.98507 22.5946 10.7906 24.1704 11.1731C26.6099 11.7653 26.6099 15.2347 24.1704 15.8269C22.5946 16.2094 21.8467 18.0149 22.6906 19.3997C23.9967 21.5435 21.5435 23.9967 19.3997 22.6906C18.0149 21.8467 16.2094 22.5946 15.8269 24.1704C15.2347 26.6099 11.7653 26.6099 11.1731 24.1704C10.7906 22.5946 8.98508 21.8467 7.60026 22.6906C5.45653 23.9967 3.00332 21.5435 4.30951 19.3997C5.1533 18.0149 4.40546 16.2094 2.82959 15.8269C0.390135 15.2347 0.390135 11.7653 2.82959 11.1731C4.40546 10.7906 5.15329 8.98508 4.30951 7.60025C3.00332 5.45653 5.45653 3.00332 7.60026 4.30951C8.98508 5.15329 10.7906 4.40546 11.1731 2.82959Z" stroke="white" stroke-width="2" stroke-linecap="round" stroke-linejoin="round"/>
<path d="M17.6668 13.5C17.6668 15.8012 15.8014 17.6666 13.5002 17.6666C11.1989 17.6666 9.3335 15.8012 9.3335 13.5C9.3335 11.1987 11.1989 9.33331 13.5002 9.33331C15.8014 9.33331 17.6668 11.1987 17.6668 13.5Z" stroke="white" stroke-width="2" stroke-linecap="round" stroke-linejoin="round"/>
</svg>
