<svg width="46" height="47" viewBox="0 0 46 47" fill="none" xmlns="http://www.w3.org/2000/svg">
<path fill-rule="evenodd" clip-rule="evenodd" d="M23 0C24.5879 0 25.875 1.28719 25.875 2.875V5.75C25.875 7.3378 24.5879 8.625 23 8.625C21.4122 8.625 20.125 7.3378 20.125 5.75V2.875C20.125 1.28719 21.4122 0 23 0ZM34.5 23C34.5 29.3512 29.3512 34.5 23 34.5C16.6487 34.5 11.5 29.3512 11.5 23C11.5 16.6487 16.6487 11.5 23 11.5C29.3512 11.5 34.5 16.6487 34.5 23ZM33.1648 37.2304L35.1978 39.2633C36.3204 40.386 38.1409 40.386 39.2636 39.2633C40.3863 38.1406 40.3863 36.3202 39.2636 35.1975L37.2307 33.1646C36.108 32.0419 34.2875 32.0419 33.1648 33.1646C32.0422 34.2873 32.0422 36.1077 33.1648 37.2304ZM39.2633 6.73638C40.386 7.85916 40.386 9.67949 39.2633 10.8023L37.2304 12.8352C36.1077 13.958 34.2873 13.958 33.1646 12.8352C32.0419 11.7124 32.0419 9.89207 33.1646 8.76933L35.1975 6.73638C36.3202 5.61364 38.1406 5.61364 39.2633 6.73638ZM43.125 25.875C44.7129 25.875 46 24.5879 46 23C46 21.4122 44.7129 20.125 43.125 20.125H40.25C38.6621 20.125 37.375 21.4122 37.375 23C37.375 24.5879 38.6621 25.875 40.25 25.875H43.125ZM23 37.375C24.5879 37.375 25.875 38.6621 25.875 40.25V43.125C25.875 44.7129 24.5879 46 23 46C21.4122 46 20.125 44.7129 20.125 43.125V40.25C20.125 38.6621 21.4122 37.375 23 37.375ZM8.76964 12.8352C9.89239 13.958 11.7127 13.958 12.8355 12.8352C13.9583 11.7125 13.9583 9.89213 12.8355 8.76938L10.8026 6.73644C9.67981 5.6137 7.85947 5.6137 6.7367 6.73644C5.61396 7.85919 5.61396 9.67955 6.7367 10.8023L8.76964 12.8352ZM12.8352 37.2304L10.8023 39.2633C9.67955 40.386 7.85919 40.386 6.73644 39.2633C5.6137 38.1406 5.6137 36.3202 6.73644 35.1975L8.76938 33.1646C9.89213 32.0419 11.7125 32.0419 12.8352 33.1646C13.958 34.2873 13.958 36.1077 12.8352 37.2304ZM5.75 25.875C7.3378 25.875 8.625 24.5879 8.625 23C8.625 21.4122 7.3378 20.125 5.75 20.125H2.875C1.28719 20.125 0 21.4122 0 23C0 24.5879 1.28719 25.875 2.875 25.875H5.75Z" fill="#36213E"/>
</svg>
