<svg width="28" height="23" viewBox="0 0 28 23" fill="none" xmlns="http://www.w3.org/2000/svg">
<path d="M20.5 21.8H27V19.2C27 17.046 25.254 15.3 23.1 15.3C21.8577 15.3 20.751 15.8808 20.0369 16.7858M20.5 21.8H7.5M20.5 21.8V19.2C20.5 18.3469 20.3357 17.5321 20.0369 16.7858M20.0369 16.7858C19.0785 14.3913 16.7368 12.7 14 12.7C11.2633 12.7 8.92155 14.3913 7.96312 16.7858M7.5 21.8H1V19.2C1 17.046 2.74609 15.3 4.9 15.3C6.14229 15.3 7.24892 15.8808 7.96312 16.7858M7.5 21.8V19.2C7.5 18.3469 7.66435 17.5321 7.96312 16.7858M17.9 4.9C17.9 7.05391 16.154 8.8 14 8.8C11.846 8.8 10.1 7.05391 10.1 4.9C10.1 2.7461 11.846 1 14 1C16.154 1 17.9 2.7461 17.9 4.9ZM25.7 8.8C25.7 10.236 24.536 11.4 23.1 11.4C21.664 11.4 20.5 10.236 20.5 8.8C20.5 7.36406 21.664 6.2 23.1 6.2C24.536 6.2 25.7 7.36406 25.7 8.8ZM7.5 8.8C7.5 10.236 6.33594 11.4 4.9 11.4C3.46406 11.4 2.3 10.236 2.3 8.8C2.3 7.36406 3.46406 6.2 4.9 6.2C6.33594 6.2 7.5 7.36406 7.5 8.8Z" stroke="white" stroke-width="2" stroke-linecap="round" stroke-linejoin="round"/>
</svg>
