<svg width="30" height="30" viewBox="0 0 30 30" fill="none" xmlns="http://www.w3.org/2000/svg">
<path d="M16.3258 0.54917C15.5936 -0.183057 14.4064 -0.183057 13.6742 0.54917L0.54917 13.6742C-0.183057 14.4064 -0.183057 15.5937 0.54917 16.3258C1.28141 17.058 2.46859 17.058 3.20084 16.3258L3.75001 15.7767V28.125C3.75001 29.1606 4.58948 30 5.62501 30H9.37501C10.4105 30 11.25 29.1606 11.25 28.125V24.375C11.25 23.3395 12.0895 22.5 13.125 22.5H16.875C17.9106 22.5 18.75 23.3395 18.75 24.375V28.125C18.75 29.1606 19.5895 30 20.625 30H24.375C25.4106 30 26.25 29.1606 26.25 28.125V15.7767L26.7992 16.3258C27.5314 17.058 28.7187 17.058 29.4509 16.3258C30.183 15.5937 30.183 14.4064 29.4509 13.6742L16.3258 0.54917Z" fill="white"/>
</svg>
