<svg width="22" height="25" viewBox="0 0 22 25" fill="none" xmlns="http://www.w3.org/2000/svg">
<path d="M10.7236 0C5.64724 0 1.53199 4.11525 1.53199 9.19167V14.6849L0.448738 15.7681C0.0106018 16.2063 -0.120456 16.8652 0.116658 17.4377C0.353772 18.0101 0.912381 18.3833 1.53199 18.3833H19.9153C20.5349 18.3833 21.0935 18.0101 21.3306 17.4377C21.5678 16.8652 21.4366 16.2063 20.9985 15.7681L19.9153 14.6849V9.19167C19.9153 4.11525 15.8 0 10.7236 0Z" fill="white"/>
<path d="M10.7238 24.5111C8.18556 24.5111 6.12793 22.4536 6.12793 19.9153H15.3196C15.3196 22.4536 13.262 24.5111 10.7238 24.5111Z" fill="white"/>
</svg>
