<svg width="48" height="48" viewBox="0 0 48 48" fill="none" xmlns="http://www.w3.org/2000/svg">
<path fill-rule="evenodd" clip-rule="evenodd" d="M11.4286 0C12.7811 0 13.8776 1.09645 13.8776 2.44898V5.38776H34.1225V2.44898C34.1225 1.09645 35.2189 0 36.5714 0C37.924 0 39.0204 1.09645 39.0204 2.44898V5.38776H40.1633C42.2417 5.38776 44.235 6.21341 45.7047 7.68308C47.1743 9.15276 48 11.1461 48 13.2245V40.1633C48 42.2417 47.1743 44.235 45.7047 45.7047C44.235 47.1743 42.2417 48 40.1633 48H7.83673C5.7583 48 3.765 47.1743 2.29533 45.7047C0.825653 44.235 0 42.2417 0 40.1633V13.2245C0 11.1461 0.825654 9.15275 2.29533 7.68308C3.765 6.21341 5.7583 5.38776 7.83673 5.38776H8.97959V2.44898C8.97959 1.09645 10.076 0 11.4286 0ZM7.83673 10.2857C7.05732 10.2857 6.30983 10.5953 5.75871 11.1465C5.20758 11.6976 4.89796 12.4451 4.89796 13.2245V14.9392C5.82291 14.5651 6.81963 14.3673 7.83673 14.3673H40.1633C41.1804 14.3673 42.1771 14.5651 43.102 14.9392V13.2245C43.102 12.4451 42.7924 11.6976 42.2413 11.1465C41.6902 10.5953 40.9427 10.2857 40.1633 10.2857H7.83673ZM43.102 22.2041C43.102 21.4247 42.7924 20.6772 42.2413 20.1261C41.6902 19.5749 40.9427 19.2653 40.1633 19.2653H7.83673C7.05732 19.2653 6.30983 19.5749 5.75871 20.1261C5.20758 20.6772 4.89796 21.4247 4.89796 22.2041V40.1633C4.89796 40.9427 5.20758 41.6902 5.75871 42.2413C6.30983 42.7924 7.05732 43.102 7.83673 43.102H40.1633C40.9427 43.102 41.6902 42.7924 42.2413 42.2413C42.7924 41.6902 43.102 40.9427 43.102 40.1633V22.2041ZM21.551 25.7959C21.551 24.4434 22.6475 23.3469 24 23.3469H24.0192C25.3717 23.3469 26.4681 24.4434 26.4681 25.7959V25.8151C26.4681 27.1676 25.3717 28.2641 24.0192 28.2641H24C22.6475 28.2641 21.551 27.1676 21.551 25.8151V25.7959ZM26.9388 25.7959C26.9388 24.4434 28.0352 23.3469 29.3878 23.3469H29.4069C30.7594 23.3469 31.8559 24.4434 31.8559 25.7959V25.8151C31.8559 27.1676 30.7594 28.2641 29.4069 28.2641H29.3878C28.0352 28.2641 26.9388 27.1676 26.9388 25.8151V25.7959ZM32.3265 25.7959C32.3265 24.4434 33.423 23.3469 34.7755 23.3469H34.7947C36.1472 23.3469 37.2436 24.4434 37.2436 25.7959V25.8151C37.2436 27.1676 36.1472 28.2641 34.7947 28.2641H34.7755C33.423 28.2641 32.3265 27.1676 32.3265 25.8151V25.7959ZM10.7755 31.1837C10.7755 29.8311 11.872 28.7347 13.2245 28.7347H13.2436C14.5962 28.7347 15.6926 29.8311 15.6926 31.1837V31.2028C15.6926 32.5554 14.5962 33.6518 13.2436 33.6518H13.2245C11.872 33.6518 10.7755 32.5554 10.7755 31.2028V31.1837ZM16.1633 31.1837C16.1633 29.8311 17.2597 28.7347 18.6122 28.7347H18.6314C19.9839 28.7347 21.0804 29.8311 21.0804 31.1837V31.2028C21.0804 32.5554 19.9839 33.6518 18.6314 33.6518H18.6122C17.2597 33.6518 16.1633 32.5554 16.1633 31.2028V31.1837ZM21.551 31.1837C21.551 29.8311 22.6475 28.7347 24 28.7347H24.0192C25.3717 28.7347 26.4681 29.8311 26.4681 31.1837V31.2028C26.4681 32.5554 25.3717 33.6518 24.0192 33.6518H24C22.6475 33.6518 21.551 32.5554 21.551 31.2028V31.1837ZM26.9388 31.1837C26.9388 29.8311 28.0352 28.7347 29.3878 28.7347H29.4069C30.7594 28.7347 31.8559 29.8311 31.8559 31.1837V31.2028C31.8559 32.5554 30.7594 33.6518 29.4069 33.6518H29.3878C28.0352 33.6518 26.9388 32.5554 26.9388 31.2028V31.1837ZM32.3265 31.1837C32.3265 29.8311 33.423 28.7347 34.7755 28.7347H34.7947C36.1472 28.7347 37.2436 29.8311 37.2436 31.1837V31.2028C37.2436 32.5554 36.1472 33.6518 34.7947 33.6518H34.7755C33.423 33.6518 32.3265 32.5554 32.3265 31.2028V31.1837ZM10.7755 36.5714C10.7755 35.2189 11.872 34.1225 13.2245 34.1225H13.2436C14.5962 34.1225 15.6926 35.2189 15.6926 36.5714V36.5906C15.6926 37.9431 14.5962 39.0396 13.2436 39.0396H13.2245C11.872 39.0396 10.7755 37.9431 10.7755 36.5906V36.5714ZM16.1633 36.5714C16.1633 35.2189 17.2597 34.1225 18.6122 34.1225H18.6314C19.9839 34.1225 21.0804 35.2189 21.0804 36.5714V36.5906C21.0804 37.9431 19.9839 39.0396 18.6314 39.0396H18.6122C17.2597 39.0396 16.1633 37.9431 16.1633 36.5906V36.5714ZM21.551 36.5714C21.551 35.2189 22.6475 34.1225 24 34.1225H24.0192C25.3717 34.1225 26.4681 35.2189 26.4681 36.5714V36.5906C26.4681 37.9431 25.3717 39.0396 24.0192 39.0396H24C22.6475 39.0396 21.551 37.9431 21.551 36.5906V36.5714ZM26.9388 36.5714C26.9388 35.2189 28.0352 34.1225 29.3878 34.1225H29.4069C30.7594 34.1225 31.8559 35.2189 31.8559 36.5714V36.5906C31.8559 37.9431 30.7594 39.0396 29.4069 39.0396H29.3878C28.0352 39.0396 26.9388 37.9431 26.9388 36.5906V36.5714Z" fill="#36213E"/>
</svg>
