<svg width="25" height="25" viewBox="0 0 25 25" fill="none" xmlns="http://www.w3.org/2000/svg">
<path fill-rule="evenodd" clip-rule="evenodd" d="M12.5 25C19.4036 25 25 19.4036 25 12.5C25 5.59644 19.4036 0 12.5 0C5.59644 0 0 5.59644 0 12.5C0 19.4036 5.59644 25 12.5 25ZM10.4799 8.27014C9.86966 7.65995 8.88034 7.65995 8.27014 8.27014C7.65995 8.88034 7.65995 9.86966 8.27014 10.4799L10.2903 12.5L8.27014 14.5202C7.65995 15.1303 7.65995 16.1197 8.27014 16.7298C8.88034 17.34 9.86966 17.34 10.4799 16.7298L12.5 14.7097L14.5202 16.7298C15.1303 17.34 16.1197 17.34 16.7298 16.7298C17.34 16.1197 17.34 15.1303 16.7298 14.5202L14.7097 12.5L16.7298 10.4799C17.34 9.86966 17.34 8.88034 16.7298 8.27014C16.1197 7.65995 15.1303 7.65995 14.5202 8.27014L12.5 10.2903L10.4799 8.27014Z" fill="#8A4242"/>
</svg>
