<svg width="25" height="25" viewBox="0 0 25 25" fill="none" xmlns="http://www.w3.org/2000/svg">
<path fill-rule="evenodd" clip-rule="evenodd" d="M6.6672 2.27337C7.672 2.19318 8.62589 1.79807 9.39309 1.14428C11.1834 -0.381426 13.8166 -0.381426 15.6069 1.14428C16.3741 1.79807 17.328 2.19318 18.3328 2.27337C20.6775 2.46048 22.5395 4.32243 22.7266 6.6672C22.8069 7.672 23.2019 8.62589 23.8558 9.39309C25.3814 11.1834 25.3814 13.8166 23.8558 15.6069C23.2019 16.3741 22.8069 17.328 22.7266 18.3328C22.5395 20.6775 20.6775 22.5395 18.3328 22.7266C17.328 22.8069 16.3741 23.2019 15.6069 23.8558C13.8166 25.3814 11.1834 25.3814 9.39309 23.8558C8.62589 23.2019 7.672 22.8069 6.6672 22.7266C4.32243 22.5395 2.46048 20.6775 2.27337 18.3328C2.19318 17.328 1.79807 16.3741 1.14428 15.6069C-0.381426 13.8166 -0.381426 11.1834 1.14428 9.39309C1.79807 8.62589 2.19318 7.672 2.27337 6.6672C2.46048 4.32243 4.32243 2.46048 6.6672 2.27337ZM18.2923 10.4799C18.9025 9.86965 18.9025 8.88034 18.2923 8.27014C17.6822 7.65995 16.6928 7.65995 16.0827 8.27014L10.9375 13.4153L8.91736 11.3951C8.30715 10.785 7.31784 10.785 6.70764 11.3951C6.09745 12.0053 6.09745 12.9947 6.70764 13.6048L9.83264 16.7298C10.4428 17.34 11.4322 17.34 12.0424 16.7298L18.2923 10.4799Z" fill="#428A6A"/>
</svg>
