<svg width="3041" height="2581" viewBox="0 0 3041 2581" fill="none" xmlns="http://www.w3.org/2000/svg">
<g filter="url(#filter0_f_2329_1703)">
<path d="M1327.85 1860L1396.7 1901.5L1396.7 1984.5L1327.85 2026L1259 1984.5L1259 1901.5L1327.85 1860Z" fill="#463558" fill-opacity="0.4"/>
</g>
<g filter="url(#filter1_f_2329_1703)">
<path d="M1243.5 1650L1293 1679.75L1293 1739.25L1243.5 1769L1194 1739.25L1194 1679.75L1243.5 1650Z" fill="#463558" fill-opacity="0.4"/>
</g>
<g filter="url(#filter2_f_2329_1703)">
<path d="M1407.85 1290L1476.7 1331.5L1476.7 1414.5L1407.85 1456L1339 1414.5L1339 1331.5L1407.85 1290Z" fill="#463558" fill-opacity="0.4"/>
</g>
<g filter="url(#filter3_f_2329_1703)">
<path d="M1017 1290L1097 1338L1097 1434L1017 1482L937 1434L937 1338L1017 1290Z" fill="#463558" fill-opacity="0.4"/>
</g>
<g filter="url(#filter4_f_2329_1703)">
<path d="M1196 2234L1276 2282L1276 2378L1196 2426L1116 2378L1116 2282L1196 2234Z" fill="#463558" fill-opacity="0.4"/>
</g>
<g filter="url(#filter5_f_2329_1703)">
<path d="M397 1325L477 1373L477 1469L397 1517L317 1469L317 1373L397 1325Z" fill="#463558" fill-opacity="0.4"/>
</g>
<g filter="url(#filter6_f_2329_1703)">
<path d="M116 1720L226 1786L226 1918L116 1984L6 1918L6 1786L116 1720Z" fill="#463558" fill-opacity="0.4"/>
</g>
<g filter="url(#filter7_f_2329_1703)">
<path d="M250 2307L317 2347.25L317 2427.75L250 2468L183 2427.75L183 2347.25L250 2307Z" fill="#463558" fill-opacity="0.4"/>
</g>
<g filter="url(#filter8_f_2329_1703)">
<path d="M1027 2340L1062.51 2361.5L1062.51 2404.5L1027 2426L991.493 2404.5L991.493 2361.5L1027 2340Z" fill="#554971" fill-opacity="0.1"/>
</g>
<g filter="url(#filter9_f_2329_1703)">
<path d="M1235 2102L1270.51 2123.5L1270.51 2166.5L1235 2188L1199.49 2166.5L1199.49 2123.5L1235 2102Z" fill="#554971" fill-opacity="0.1"/>
</g>
<g filter="url(#filter10_f_2329_1703)">
<path d="M1380 2319L1415.51 2340.5L1415.51 2383.5L1380 2405L1344.49 2383.5L1344.49 2340.5L1380 2319Z" fill="#554971" fill-opacity="0.1"/>
</g>
<g filter="url(#filter11_f_2329_1703)">
<path d="M1235 1290L1270.51 1311.5L1270.51 1354.5L1235 1376L1199.49 1354.5L1199.49 1311.5L1235 1290Z" fill="#554971" fill-opacity="0.1"/>
</g>
<g filter="url(#filter12_f_2329_1703)">
<path d="M567 1300L602.507 1321.5L602.507 1364.5L567 1386L531.493 1364.5L531.493 1321.5L567 1300Z" fill="#554971" fill-opacity="0.1"/>
</g>
<g filter="url(#filter13_f_2329_1703)">
<path d="M116 1517L151.507 1538.5L151.507 1581.5L116 1603L80.493 1581.5L80.493 1538.5L116 1517Z" fill="#554971" fill-opacity="0.1"/>
</g>
<g filter="url(#filter14_f_2329_1703)">
<path d="M108 2151L143.507 2172.5L143.507 2215.5L108 2237L72.493 2215.5L72.493 2172.5L108 2151Z" fill="#554971" fill-opacity="0.1"/>
</g>
<g filter="url(#filter15_f_2329_1703)">
<path d="M667.034 2277L789.172 2351.28L789.172 2499.84L667.034 2574.12L544.895 2499.84L544.895 2351.28L667.034 2277Z" fill="#36213E" fill-opacity="0.4"/>
</g>
<g filter="url(#filter16_f_2329_1703)">
<path d="M1065.5 2043L1134.35 2085L1134.35 2169L1065.5 2211L996.651 2169L996.651 2085L1065.5 2043Z" fill="#36213E" fill-opacity="0.4"/>
</g>
<g filter="url(#filter17_f_2329_1703)">
<path d="M1003.5 1767L1042.04 1743.5L1042.04 1696.5L1003.5 1673L964.962 1696.5L964.962 1743.5L1003.5 1767Z" fill="#36213E" fill-opacity="0.4"/>
</g>
<g filter="url(#filter18_f_2329_1703)">
<path d="M333.5 1697L372.038 1673.5L372.038 1626.5L333.5 1603L294.962 1626.5L294.962 1673.5L333.5 1697Z" fill="#36213E" fill-opacity="0.4"/>
</g>
<g filter="url(#filter19_f_2329_1703)">
<path d="M244.5 2201L283.038 2177.5L283.038 2130.5L244.5 2107L205.962 2130.5L205.962 2177.5L244.5 2201Z" fill="#36213E" fill-opacity="0.4"/>
</g>
<g filter="url(#filter20_f_2329_1703)">
<path d="M467.5 2067L506.038 2043.5L506.038 1996.5L467.5 1973L428.962 1996.5L428.962 2043.5L467.5 2067Z" fill="#36213E" fill-opacity="0.4"/>
</g>
<g filter="url(#filter21_f_2329_1703)">
<path d="M2778.85 1834L2847.7 1875.5L2847.7 1958.5L2778.85 2000L2710 1958.5L2710 1875.5L2778.85 1834Z" fill="#463558" fill-opacity="0.4"/>
</g>
<g filter="url(#filter22_f_2329_1703)">
<path d="M2694.5 1624L2744 1653.75L2744 1713.25L2694.5 1743L2645 1713.25L2645 1653.75L2694.5 1624Z" fill="#463558" fill-opacity="0.4"/>
</g>
<g filter="url(#filter23_f_2329_1703)">
<path d="M2858.85 1264L2927.7 1305.5L2927.7 1388.5L2858.85 1430L2790 1388.5L2790 1305.5L2858.85 1264Z" fill="#463558" fill-opacity="0.4"/>
</g>
<g filter="url(#filter24_f_2329_1703)">
<path d="M2468 1264L2548 1312L2548 1408L2468 1456L2388 1408L2388 1312L2468 1264Z" fill="#463558" fill-opacity="0.4"/>
</g>
<g filter="url(#filter25_f_2329_1703)">
<path d="M2647 2208L2727 2256L2727 2352L2647 2400L2567 2352L2567 2256L2647 2208Z" fill="#463558" fill-opacity="0.4"/>
</g>
<g filter="url(#filter26_f_2329_1703)">
<path d="M1848 1299L1928 1347L1928 1443L1848 1491L1768 1443L1768 1347L1848 1299Z" fill="#463558" fill-opacity="0.4"/>
</g>
<g filter="url(#filter27_f_2329_1703)">
<path d="M1567 1694L1677 1760L1677 1892L1567 1958L1457 1892L1457 1760L1567 1694Z" fill="#463558" fill-opacity="0.4"/>
</g>
<g filter="url(#filter28_f_2329_1703)">
<path d="M1701 2281L1768 2321.25L1768 2401.75L1701 2442L1634 2401.75L1634 2321.25L1701 2281Z" fill="#463558" fill-opacity="0.4"/>
</g>
<g filter="url(#filter29_f_2329_1703)">
<path d="M2478 2314L2513.51 2335.5L2513.51 2378.5L2478 2400L2442.49 2378.5L2442.49 2335.5L2478 2314Z" fill="#554971" fill-opacity="0.1"/>
</g>
<g filter="url(#filter30_f_2329_1703)">
<path d="M2686 2076L2721.51 2097.5L2721.51 2140.5L2686 2162L2650.49 2140.5L2650.49 2097.5L2686 2076Z" fill="#554971" fill-opacity="0.1"/>
</g>
<g filter="url(#filter31_f_2329_1703)">
<path d="M2831 2293L2866.51 2314.5L2866.51 2357.5L2831 2379L2795.49 2357.5L2795.49 2314.5L2831 2293Z" fill="#554971" fill-opacity="0.1"/>
</g>
<g filter="url(#filter32_f_2329_1703)">
<path d="M2686 1264L2721.51 1285.5L2721.51 1328.5L2686 1350L2650.49 1328.5L2650.49 1285.5L2686 1264Z" fill="#554971" fill-opacity="0.1"/>
</g>
<g filter="url(#filter33_f_2329_1703)">
<path d="M2018 1274L2053.51 1295.5L2053.51 1338.5L2018 1360L1982.49 1338.5L1982.49 1295.5L2018 1274Z" fill="#554971" fill-opacity="0.1"/>
</g>
<g filter="url(#filter34_f_2329_1703)">
<path d="M1567 1491L1602.51 1512.5L1602.51 1555.5L1567 1577L1531.49 1555.5L1531.49 1512.5L1567 1491Z" fill="#554971" fill-opacity="0.1"/>
</g>
<g filter="url(#filter35_f_2329_1703)">
<path d="M1559 2125L1594.51 2146.5L1594.51 2189.5L1559 2211L1523.49 2189.5L1523.49 2146.5L1559 2125Z" fill="#554971" fill-opacity="0.1"/>
</g>
<g filter="url(#filter36_f_2329_1703)">
<path d="M2118.03 2251L2240.17 2325.28L2240.17 2473.84L2118.03 2548.12L1995.89 2473.84L1995.89 2325.28L2118.03 2251Z" fill="#36213E" fill-opacity="0.4"/>
</g>
<g filter="url(#filter37_f_2329_1703)">
<path d="M2516.5 2017L2585.35 2059L2585.35 2143L2516.5 2185L2447.65 2143L2447.65 2059L2516.5 2017Z" fill="#36213E" fill-opacity="0.4"/>
</g>
<g filter="url(#filter38_f_2329_1703)">
<path d="M2454.5 1741L2493.04 1717.5L2493.04 1670.5L2454.5 1647L2415.96 1670.5L2415.96 1717.5L2454.5 1741Z" fill="#36213E" fill-opacity="0.4"/>
</g>
<g filter="url(#filter39_f_2329_1703)">
<path d="M1784.5 1671L1823.04 1647.5L1823.04 1600.5L1784.5 1577L1745.96 1600.5L1745.96 1647.5L1784.5 1671Z" fill="#36213E" fill-opacity="0.4"/>
</g>
<g filter="url(#filter40_f_2329_1703)">
<path d="M1695.5 2175L1734.04 2151.5L1734.04 2104.5L1695.5 2081L1656.96 2104.5L1656.96 2151.5L1695.5 2175Z" fill="#36213E" fill-opacity="0.4"/>
</g>
<g filter="url(#filter41_f_2329_1703)">
<path d="M1918.5 2041L1957.04 2017.5L1957.04 1970.5L1918.5 1947L1879.96 1970.5L1879.96 2017.5L1918.5 2041Z" fill="#36213E" fill-opacity="0.4"/>
</g>
<g filter="url(#filter42_f_2329_1703)">
<path d="M2885.85 700L2954.7 741.5L2954.7 824.5L2885.85 866L2817 824.5L2817 741.5L2885.85 700Z" fill="#463558" fill-opacity="0.4"/>
</g>
<g filter="url(#filter43_f_2329_1703)">
<path d="M2801.5 490L2851 519.75L2851 579.25L2801.5 609L2752 579.25L2752 519.75L2801.5 490Z" fill="#463558" fill-opacity="0.4"/>
</g>
<g filter="url(#filter44_f_2329_1703)">
<path d="M2965.85 130L3034.7 171.5L3034.7 254.5L2965.85 296L2897 254.5L2897 171.5L2965.85 130Z" fill="#463558" fill-opacity="0.4"/>
</g>
<g filter="url(#filter45_f_2329_1703)">
<path d="M2575 130L2655 178L2655 274L2575 322L2495 274L2495 178L2575 130Z" fill="#463558" fill-opacity="0.4"/>
</g>
<g filter="url(#filter46_f_2329_1703)">
<path d="M2754 1074L2834 1122L2834 1218L2754 1266L2674 1218L2674 1122L2754 1074Z" fill="#463558" fill-opacity="0.4"/>
</g>
<g filter="url(#filter47_f_2329_1703)">
<path d="M1955 165L2035 213L2035 309L1955 357L1875 309L1875 213L1955 165Z" fill="#463558" fill-opacity="0.4"/>
</g>
<g filter="url(#filter48_f_2329_1703)">
<path d="M1674 560L1784 626L1784 758L1674 824L1564 758L1564 626L1674 560Z" fill="#463558" fill-opacity="0.4"/>
</g>
<g filter="url(#filter49_f_2329_1703)">
<path d="M1808 1147L1875 1187.25L1875 1267.75L1808 1308L1741 1267.75L1741 1187.25L1808 1147Z" fill="#463558" fill-opacity="0.4"/>
</g>
<g filter="url(#filter50_f_2329_1703)">
<path d="M2585 1180L2620.51 1201.5L2620.51 1244.5L2585 1266L2549.49 1244.5L2549.49 1201.5L2585 1180Z" fill="#554971" fill-opacity="0.1"/>
</g>
<g filter="url(#filter51_f_2329_1703)">
<path d="M2793 942L2828.51 963.5L2828.51 1006.5L2793 1028L2757.49 1006.5L2757.49 963.5L2793 942Z" fill="#554971" fill-opacity="0.1"/>
</g>
<g filter="url(#filter52_f_2329_1703)">
<path d="M2938 1159L2973.51 1180.5L2973.51 1223.5L2938 1245L2902.49 1223.5L2902.49 1180.5L2938 1159Z" fill="#554971" fill-opacity="0.1"/>
</g>
<g filter="url(#filter53_f_2329_1703)">
<path d="M2793 130L2828.51 151.5L2828.51 194.5L2793 216L2757.49 194.5L2757.49 151.5L2793 130Z" fill="#554971" fill-opacity="0.1"/>
</g>
<g filter="url(#filter54_f_2329_1703)">
<path d="M2125 140L2160.51 161.5L2160.51 204.5L2125 226L2089.49 204.5L2089.49 161.5L2125 140Z" fill="#554971" fill-opacity="0.1"/>
</g>
<g filter="url(#filter55_f_2329_1703)">
<path d="M1674 357L1709.51 378.5L1709.51 421.5L1674 443L1638.49 421.5L1638.49 378.5L1674 357Z" fill="#554971" fill-opacity="0.1"/>
</g>
<g filter="url(#filter56_f_2329_1703)">
<path d="M1666 991L1701.51 1012.5L1701.51 1055.5L1666 1077L1630.49 1055.5L1630.49 1012.5L1666 991Z" fill="#554971" fill-opacity="0.1"/>
</g>
<g filter="url(#filter57_f_2329_1703)">
<path d="M2225.03 1117L2347.17 1191.28L2347.17 1339.84L2225.03 1414.12L2102.89 1339.84L2102.89 1191.28L2225.03 1117Z" fill="#36213E" fill-opacity="0.4"/>
</g>
<g filter="url(#filter58_f_2329_1703)">
<path d="M2623.5 883L2692.35 925L2692.35 1009L2623.5 1051L2554.65 1009L2554.65 925L2623.5 883Z" fill="#36213E" fill-opacity="0.4"/>
</g>
<g filter="url(#filter59_f_2329_1703)">
<path d="M2561.5 607L2600.04 583.5L2600.04 536.5L2561.5 513L2522.96 536.5L2522.96 583.5L2561.5 607Z" fill="#36213E" fill-opacity="0.4"/>
</g>
<g filter="url(#filter60_f_2329_1703)">
<path d="M1891.5 537L1930.04 513.5L1930.04 466.5L1891.5 443L1852.96 466.5L1852.96 513.5L1891.5 537Z" fill="#36213E" fill-opacity="0.4"/>
</g>
<g filter="url(#filter61_f_2329_1703)">
<path d="M1802.5 1041L1841.04 1017.5L1841.04 970.5L1802.5 947L1763.96 970.5L1763.96 1017.5L1802.5 1041Z" fill="#36213E" fill-opacity="0.4"/>
</g>
<g filter="url(#filter62_f_2329_1703)">
<path d="M2025.5 907L2064.04 883.5L2064.04 836.5L2025.5 813L1986.96 836.5L1986.96 883.5L2025.5 907Z" fill="#36213E" fill-opacity="0.4"/>
</g>
<g filter="url(#filter63_f_2329_1703)">
<path d="M1414.85 576L1483.7 617.5L1483.7 700.5L1414.85 742L1346 700.5L1346 617.5L1414.85 576Z" fill="#463558" fill-opacity="0.4"/>
</g>
<g filter="url(#filter64_f_2329_1703)">
<path d="M1330.5 366L1380 395.75L1380 455.25L1330.5 485L1281 455.25L1281 395.75L1330.5 366Z" fill="#463558" fill-opacity="0.4"/>
</g>
<g filter="url(#filter65_f_2329_1703)">
<path d="M1494.85 6L1563.7 47.5L1563.7 130.5L1494.85 172L1426 130.5L1426 47.5L1494.85 6Z" fill="#463558" fill-opacity="0.4"/>
</g>
<g filter="url(#filter66_f_2329_1703)">
<path d="M1104 6L1184 54L1184 150L1104 198L1024 150L1024 54L1104 6Z" fill="#463558" fill-opacity="0.4"/>
</g>
<g filter="url(#filter67_f_2329_1703)">
<path d="M1283 950L1363 998L1363 1094L1283 1142L1203 1094L1203 998L1283 950Z" fill="#463558" fill-opacity="0.4"/>
</g>
<g filter="url(#filter68_f_2329_1703)">
<path d="M484 41L564 89L564 185L484 233L404 185L404 89L484 41Z" fill="#463558" fill-opacity="0.4"/>
</g>
<g filter="url(#filter69_f_2329_1703)">
<path d="M203 436L313 502L313 634L203 700L93 634L93 502L203 436Z" fill="#463558" fill-opacity="0.4"/>
</g>
<g filter="url(#filter70_f_2329_1703)">
<path d="M337 1023L404 1063.25L404 1143.75L337 1184L270 1143.75L270 1063.25L337 1023Z" fill="#463558" fill-opacity="0.4"/>
</g>
<g filter="url(#filter71_f_2329_1703)">
<path d="M1114 1056L1149.51 1077.5L1149.51 1120.5L1114 1142L1078.49 1120.5L1078.49 1077.5L1114 1056Z" fill="#554971" fill-opacity="0.1"/>
</g>
<g filter="url(#filter72_f_2329_1703)">
<path d="M1322 818L1357.51 839.5L1357.51 882.5L1322 904L1286.49 882.5L1286.49 839.5L1322 818Z" fill="#554971" fill-opacity="0.1"/>
</g>
<g filter="url(#filter73_f_2329_1703)">
<path d="M1467 1035L1502.51 1056.5L1502.51 1099.5L1467 1121L1431.49 1099.5L1431.49 1056.5L1467 1035Z" fill="#554971" fill-opacity="0.1"/>
</g>
<g filter="url(#filter74_f_2329_1703)">
<path d="M1322 6L1357.51 27.5L1357.51 70.5L1322 92L1286.49 70.5L1286.49 27.5L1322 6Z" fill="#554971" fill-opacity="0.1"/>
</g>
<g filter="url(#filter75_f_2329_1703)">
<path d="M654 16L689.507 37.5L689.507 80.5L654 102L618.493 80.5L618.493 37.5L654 16Z" fill="#554971" fill-opacity="0.1"/>
</g>
<g filter="url(#filter76_f_2329_1703)">
<path d="M203 233L238.507 254.5L238.507 297.5L203 319L167.493 297.5L167.493 254.5L203 233Z" fill="#554971" fill-opacity="0.1"/>
</g>
<g filter="url(#filter77_f_2329_1703)">
<path d="M195 867L230.507 888.5L230.507 931.5L195 953L159.493 931.5L159.493 888.5L195 867Z" fill="#554971" fill-opacity="0.1"/>
</g>
<g filter="url(#filter78_f_2329_1703)">
<path d="M754.034 993L876.172 1067.28L876.172 1215.84L754.034 1290.12L631.895 1215.84L631.895 1067.28L754.034 993Z" fill="#36213E" fill-opacity="0.4"/>
</g>
<g filter="url(#filter79_f_2329_1703)">
<path d="M1152.5 759L1221.35 801L1221.35 885L1152.5 927L1083.65 885L1083.65 801L1152.5 759Z" fill="#36213E" fill-opacity="0.4"/>
</g>
<g filter="url(#filter80_f_2329_1703)">
<path d="M1090.5 483L1129.04 459.5L1129.04 412.5L1090.5 389L1051.96 412.5L1051.96 459.5L1090.5 483Z" fill="#36213E" fill-opacity="0.4"/>
</g>
<g filter="url(#filter81_f_2329_1703)">
<path d="M420.5 413L459.038 389.5L459.038 342.5L420.5 319L381.962 342.5L381.962 389.5L420.5 413Z" fill="#36213E" fill-opacity="0.4"/>
</g>
<g filter="url(#filter82_f_2329_1703)">
<path d="M331.5 917L370.038 893.5L370.038 846.5L331.5 823L292.962 846.5L292.962 893.5L331.5 917Z" fill="#36213E" fill-opacity="0.4"/>
</g>
<g filter="url(#filter83_f_2329_1703)">
<path d="M554.5 783L593.038 759.5L593.038 712.5L554.5 689L515.962 712.5L515.962 759.5L554.5 783Z" fill="#36213E" fill-opacity="0.4"/>
</g>
<defs>
<filter id="filter0_f_2329_1703" x="1253" y="1854" width="149.697" height="178" filterUnits="userSpaceOnUse" color-interpolation-filters="sRGB">
<feFlood flood-opacity="0" result="BackgroundImageFix"/>
<feBlend mode="normal" in="SourceGraphic" in2="BackgroundImageFix" result="shape"/>
<feGaussianBlur stdDeviation="3" result="effect1_foregroundBlur_2329_1703"/>
</filter>
<filter id="filter1_f_2329_1703" x="1188" y="1644" width="111" height="131" filterUnits="userSpaceOnUse" color-interpolation-filters="sRGB">
<feFlood flood-opacity="0" result="BackgroundImageFix"/>
<feBlend mode="normal" in="SourceGraphic" in2="BackgroundImageFix" result="shape"/>
<feGaussianBlur stdDeviation="3" result="effect1_foregroundBlur_2329_1703"/>
</filter>
<filter id="filter2_f_2329_1703" x="1333" y="1284" width="149.697" height="178" filterUnits="userSpaceOnUse" color-interpolation-filters="sRGB">
<feFlood flood-opacity="0" result="BackgroundImageFix"/>
<feBlend mode="normal" in="SourceGraphic" in2="BackgroundImageFix" result="shape"/>
<feGaussianBlur stdDeviation="3" result="effect1_foregroundBlur_2329_1703"/>
</filter>
<filter id="filter3_f_2329_1703" x="931" y="1284" width="172" height="204" filterUnits="userSpaceOnUse" color-interpolation-filters="sRGB">
<feFlood flood-opacity="0" result="BackgroundImageFix"/>
<feBlend mode="normal" in="SourceGraphic" in2="BackgroundImageFix" result="shape"/>
<feGaussianBlur stdDeviation="3" result="effect1_foregroundBlur_2329_1703"/>
</filter>
<filter id="filter4_f_2329_1703" x="1110" y="2228" width="172" height="204" filterUnits="userSpaceOnUse" color-interpolation-filters="sRGB">
<feFlood flood-opacity="0" result="BackgroundImageFix"/>
<feBlend mode="normal" in="SourceGraphic" in2="BackgroundImageFix" result="shape"/>
<feGaussianBlur stdDeviation="3" result="effect1_foregroundBlur_2329_1703"/>
</filter>
<filter id="filter5_f_2329_1703" x="311" y="1319" width="172" height="204" filterUnits="userSpaceOnUse" color-interpolation-filters="sRGB">
<feFlood flood-opacity="0" result="BackgroundImageFix"/>
<feBlend mode="normal" in="SourceGraphic" in2="BackgroundImageFix" result="shape"/>
<feGaussianBlur stdDeviation="3" result="effect1_foregroundBlur_2329_1703"/>
</filter>
<filter id="filter6_f_2329_1703" x="0" y="1714" width="232" height="276" filterUnits="userSpaceOnUse" color-interpolation-filters="sRGB">
<feFlood flood-opacity="0" result="BackgroundImageFix"/>
<feBlend mode="normal" in="SourceGraphic" in2="BackgroundImageFix" result="shape"/>
<feGaussianBlur stdDeviation="3" result="effect1_foregroundBlur_2329_1703"/>
</filter>
<filter id="filter7_f_2329_1703" x="177" y="2301" width="146" height="173" filterUnits="userSpaceOnUse" color-interpolation-filters="sRGB">
<feFlood flood-opacity="0" result="BackgroundImageFix"/>
<feBlend mode="normal" in="SourceGraphic" in2="BackgroundImageFix" result="shape"/>
<feGaussianBlur stdDeviation="3" result="effect1_foregroundBlur_2329_1703"/>
</filter>
<filter id="filter8_f_2329_1703" x="985.492" y="2334" width="83.0156" height="98" filterUnits="userSpaceOnUse" color-interpolation-filters="sRGB">
<feFlood flood-opacity="0" result="BackgroundImageFix"/>
<feBlend mode="normal" in="SourceGraphic" in2="BackgroundImageFix" result="shape"/>
<feGaussianBlur stdDeviation="3" result="effect1_foregroundBlur_2329_1703"/>
</filter>
<filter id="filter9_f_2329_1703" x="1193.49" y="2096" width="83.0156" height="98" filterUnits="userSpaceOnUse" color-interpolation-filters="sRGB">
<feFlood flood-opacity="0" result="BackgroundImageFix"/>
<feBlend mode="normal" in="SourceGraphic" in2="BackgroundImageFix" result="shape"/>
<feGaussianBlur stdDeviation="3" result="effect1_foregroundBlur_2329_1703"/>
</filter>
<filter id="filter10_f_2329_1703" x="1338.49" y="2313" width="83.0156" height="98" filterUnits="userSpaceOnUse" color-interpolation-filters="sRGB">
<feFlood flood-opacity="0" result="BackgroundImageFix"/>
<feBlend mode="normal" in="SourceGraphic" in2="BackgroundImageFix" result="shape"/>
<feGaussianBlur stdDeviation="3" result="effect1_foregroundBlur_2329_1703"/>
</filter>
<filter id="filter11_f_2329_1703" x="1193.49" y="1284" width="83.0156" height="98" filterUnits="userSpaceOnUse" color-interpolation-filters="sRGB">
<feFlood flood-opacity="0" result="BackgroundImageFix"/>
<feBlend mode="normal" in="SourceGraphic" in2="BackgroundImageFix" result="shape"/>
<feGaussianBlur stdDeviation="3" result="effect1_foregroundBlur_2329_1703"/>
</filter>
<filter id="filter12_f_2329_1703" x="525.492" y="1294" width="83.0156" height="98" filterUnits="userSpaceOnUse" color-interpolation-filters="sRGB">
<feFlood flood-opacity="0" result="BackgroundImageFix"/>
<feBlend mode="normal" in="SourceGraphic" in2="BackgroundImageFix" result="shape"/>
<feGaussianBlur stdDeviation="3" result="effect1_foregroundBlur_2329_1703"/>
</filter>
<filter id="filter13_f_2329_1703" x="74.4922" y="1511" width="83.0156" height="98" filterUnits="userSpaceOnUse" color-interpolation-filters="sRGB">
<feFlood flood-opacity="0" result="BackgroundImageFix"/>
<feBlend mode="normal" in="SourceGraphic" in2="BackgroundImageFix" result="shape"/>
<feGaussianBlur stdDeviation="3" result="effect1_foregroundBlur_2329_1703"/>
</filter>
<filter id="filter14_f_2329_1703" x="66.4922" y="2145" width="83.0156" height="98" filterUnits="userSpaceOnUse" color-interpolation-filters="sRGB">
<feFlood flood-opacity="0" result="BackgroundImageFix"/>
<feBlend mode="normal" in="SourceGraphic" in2="BackgroundImageFix" result="shape"/>
<feGaussianBlur stdDeviation="3" result="effect1_foregroundBlur_2329_1703"/>
</filter>
<filter id="filter15_f_2329_1703" x="538.895" y="2271" width="256.277" height="309.125" filterUnits="userSpaceOnUse" color-interpolation-filters="sRGB">
<feFlood flood-opacity="0" result="BackgroundImageFix"/>
<feBlend mode="normal" in="SourceGraphic" in2="BackgroundImageFix" result="shape"/>
<feGaussianBlur stdDeviation="3" result="effect1_foregroundBlur_2329_1703"/>
</filter>
<filter id="filter16_f_2329_1703" x="990.65" y="2037" width="149.699" height="180" filterUnits="userSpaceOnUse" color-interpolation-filters="sRGB">
<feFlood flood-opacity="0" result="BackgroundImageFix"/>
<feBlend mode="normal" in="SourceGraphic" in2="BackgroundImageFix" result="shape"/>
<feGaussianBlur stdDeviation="3" result="effect1_foregroundBlur_2329_1703"/>
</filter>
<filter id="filter17_f_2329_1703" x="958.961" y="1667" width="89.0781" height="106" filterUnits="userSpaceOnUse" color-interpolation-filters="sRGB">
<feFlood flood-opacity="0" result="BackgroundImageFix"/>
<feBlend mode="normal" in="SourceGraphic" in2="BackgroundImageFix" result="shape"/>
<feGaussianBlur stdDeviation="3" result="effect1_foregroundBlur_2329_1703"/>
</filter>
<filter id="filter18_f_2329_1703" x="288.961" y="1597" width="89.0781" height="106" filterUnits="userSpaceOnUse" color-interpolation-filters="sRGB">
<feFlood flood-opacity="0" result="BackgroundImageFix"/>
<feBlend mode="normal" in="SourceGraphic" in2="BackgroundImageFix" result="shape"/>
<feGaussianBlur stdDeviation="3" result="effect1_foregroundBlur_2329_1703"/>
</filter>
<filter id="filter19_f_2329_1703" x="199.961" y="2101" width="89.0781" height="106" filterUnits="userSpaceOnUse" color-interpolation-filters="sRGB">
<feFlood flood-opacity="0" result="BackgroundImageFix"/>
<feBlend mode="normal" in="SourceGraphic" in2="BackgroundImageFix" result="shape"/>
<feGaussianBlur stdDeviation="3" result="effect1_foregroundBlur_2329_1703"/>
</filter>
<filter id="filter20_f_2329_1703" x="422.961" y="1967" width="89.0781" height="106" filterUnits="userSpaceOnUse" color-interpolation-filters="sRGB">
<feFlood flood-opacity="0" result="BackgroundImageFix"/>
<feBlend mode="normal" in="SourceGraphic" in2="BackgroundImageFix" result="shape"/>
<feGaussianBlur stdDeviation="3" result="effect1_foregroundBlur_2329_1703"/>
</filter>
<filter id="filter21_f_2329_1703" x="2704" y="1828" width="149.697" height="178" filterUnits="userSpaceOnUse" color-interpolation-filters="sRGB">
<feFlood flood-opacity="0" result="BackgroundImageFix"/>
<feBlend mode="normal" in="SourceGraphic" in2="BackgroundImageFix" result="shape"/>
<feGaussianBlur stdDeviation="3" result="effect1_foregroundBlur_2329_1703"/>
</filter>
<filter id="filter22_f_2329_1703" x="2639" y="1618" width="111" height="131" filterUnits="userSpaceOnUse" color-interpolation-filters="sRGB">
<feFlood flood-opacity="0" result="BackgroundImageFix"/>
<feBlend mode="normal" in="SourceGraphic" in2="BackgroundImageFix" result="shape"/>
<feGaussianBlur stdDeviation="3" result="effect1_foregroundBlur_2329_1703"/>
</filter>
<filter id="filter23_f_2329_1703" x="2784" y="1258" width="149.697" height="178" filterUnits="userSpaceOnUse" color-interpolation-filters="sRGB">
<feFlood flood-opacity="0" result="BackgroundImageFix"/>
<feBlend mode="normal" in="SourceGraphic" in2="BackgroundImageFix" result="shape"/>
<feGaussianBlur stdDeviation="3" result="effect1_foregroundBlur_2329_1703"/>
</filter>
<filter id="filter24_f_2329_1703" x="2382" y="1258" width="172" height="204" filterUnits="userSpaceOnUse" color-interpolation-filters="sRGB">
<feFlood flood-opacity="0" result="BackgroundImageFix"/>
<feBlend mode="normal" in="SourceGraphic" in2="BackgroundImageFix" result="shape"/>
<feGaussianBlur stdDeviation="3" result="effect1_foregroundBlur_2329_1703"/>
</filter>
<filter id="filter25_f_2329_1703" x="2561" y="2202" width="172" height="204" filterUnits="userSpaceOnUse" color-interpolation-filters="sRGB">
<feFlood flood-opacity="0" result="BackgroundImageFix"/>
<feBlend mode="normal" in="SourceGraphic" in2="BackgroundImageFix" result="shape"/>
<feGaussianBlur stdDeviation="3" result="effect1_foregroundBlur_2329_1703"/>
</filter>
<filter id="filter26_f_2329_1703" x="1762" y="1293" width="172" height="204" filterUnits="userSpaceOnUse" color-interpolation-filters="sRGB">
<feFlood flood-opacity="0" result="BackgroundImageFix"/>
<feBlend mode="normal" in="SourceGraphic" in2="BackgroundImageFix" result="shape"/>
<feGaussianBlur stdDeviation="3" result="effect1_foregroundBlur_2329_1703"/>
</filter>
<filter id="filter27_f_2329_1703" x="1451" y="1688" width="232" height="276" filterUnits="userSpaceOnUse" color-interpolation-filters="sRGB">
<feFlood flood-opacity="0" result="BackgroundImageFix"/>
<feBlend mode="normal" in="SourceGraphic" in2="BackgroundImageFix" result="shape"/>
<feGaussianBlur stdDeviation="3" result="effect1_foregroundBlur_2329_1703"/>
</filter>
<filter id="filter28_f_2329_1703" x="1628" y="2275" width="146" height="173" filterUnits="userSpaceOnUse" color-interpolation-filters="sRGB">
<feFlood flood-opacity="0" result="BackgroundImageFix"/>
<feBlend mode="normal" in="SourceGraphic" in2="BackgroundImageFix" result="shape"/>
<feGaussianBlur stdDeviation="3" result="effect1_foregroundBlur_2329_1703"/>
</filter>
<filter id="filter29_f_2329_1703" x="2436.49" y="2308" width="83.0156" height="98" filterUnits="userSpaceOnUse" color-interpolation-filters="sRGB">
<feFlood flood-opacity="0" result="BackgroundImageFix"/>
<feBlend mode="normal" in="SourceGraphic" in2="BackgroundImageFix" result="shape"/>
<feGaussianBlur stdDeviation="3" result="effect1_foregroundBlur_2329_1703"/>
</filter>
<filter id="filter30_f_2329_1703" x="2644.49" y="2070" width="83.0156" height="98" filterUnits="userSpaceOnUse" color-interpolation-filters="sRGB">
<feFlood flood-opacity="0" result="BackgroundImageFix"/>
<feBlend mode="normal" in="SourceGraphic" in2="BackgroundImageFix" result="shape"/>
<feGaussianBlur stdDeviation="3" result="effect1_foregroundBlur_2329_1703"/>
</filter>
<filter id="filter31_f_2329_1703" x="2789.49" y="2287" width="83.0156" height="98" filterUnits="userSpaceOnUse" color-interpolation-filters="sRGB">
<feFlood flood-opacity="0" result="BackgroundImageFix"/>
<feBlend mode="normal" in="SourceGraphic" in2="BackgroundImageFix" result="shape"/>
<feGaussianBlur stdDeviation="3" result="effect1_foregroundBlur_2329_1703"/>
</filter>
<filter id="filter32_f_2329_1703" x="2644.49" y="1258" width="83.0156" height="98" filterUnits="userSpaceOnUse" color-interpolation-filters="sRGB">
<feFlood flood-opacity="0" result="BackgroundImageFix"/>
<feBlend mode="normal" in="SourceGraphic" in2="BackgroundImageFix" result="shape"/>
<feGaussianBlur stdDeviation="3" result="effect1_foregroundBlur_2329_1703"/>
</filter>
<filter id="filter33_f_2329_1703" x="1976.49" y="1268" width="83.0156" height="98" filterUnits="userSpaceOnUse" color-interpolation-filters="sRGB">
<feFlood flood-opacity="0" result="BackgroundImageFix"/>
<feBlend mode="normal" in="SourceGraphic" in2="BackgroundImageFix" result="shape"/>
<feGaussianBlur stdDeviation="3" result="effect1_foregroundBlur_2329_1703"/>
</filter>
<filter id="filter34_f_2329_1703" x="1525.49" y="1485" width="83.0156" height="98" filterUnits="userSpaceOnUse" color-interpolation-filters="sRGB">
<feFlood flood-opacity="0" result="BackgroundImageFix"/>
<feBlend mode="normal" in="SourceGraphic" in2="BackgroundImageFix" result="shape"/>
<feGaussianBlur stdDeviation="3" result="effect1_foregroundBlur_2329_1703"/>
</filter>
<filter id="filter35_f_2329_1703" x="1517.49" y="2119" width="83.0156" height="98" filterUnits="userSpaceOnUse" color-interpolation-filters="sRGB">
<feFlood flood-opacity="0" result="BackgroundImageFix"/>
<feBlend mode="normal" in="SourceGraphic" in2="BackgroundImageFix" result="shape"/>
<feGaussianBlur stdDeviation="3" result="effect1_foregroundBlur_2329_1703"/>
</filter>
<filter id="filter36_f_2329_1703" x="1989.89" y="2245" width="256.277" height="309.125" filterUnits="userSpaceOnUse" color-interpolation-filters="sRGB">
<feFlood flood-opacity="0" result="BackgroundImageFix"/>
<feBlend mode="normal" in="SourceGraphic" in2="BackgroundImageFix" result="shape"/>
<feGaussianBlur stdDeviation="3" result="effect1_foregroundBlur_2329_1703"/>
</filter>
<filter id="filter37_f_2329_1703" x="2441.65" y="2011" width="149.699" height="180" filterUnits="userSpaceOnUse" color-interpolation-filters="sRGB">
<feFlood flood-opacity="0" result="BackgroundImageFix"/>
<feBlend mode="normal" in="SourceGraphic" in2="BackgroundImageFix" result="shape"/>
<feGaussianBlur stdDeviation="3" result="effect1_foregroundBlur_2329_1703"/>
</filter>
<filter id="filter38_f_2329_1703" x="2409.96" y="1641" width="89.0781" height="106" filterUnits="userSpaceOnUse" color-interpolation-filters="sRGB">
<feFlood flood-opacity="0" result="BackgroundImageFix"/>
<feBlend mode="normal" in="SourceGraphic" in2="BackgroundImageFix" result="shape"/>
<feGaussianBlur stdDeviation="3" result="effect1_foregroundBlur_2329_1703"/>
</filter>
<filter id="filter39_f_2329_1703" x="1739.96" y="1571" width="89.0781" height="106" filterUnits="userSpaceOnUse" color-interpolation-filters="sRGB">
<feFlood flood-opacity="0" result="BackgroundImageFix"/>
<feBlend mode="normal" in="SourceGraphic" in2="BackgroundImageFix" result="shape"/>
<feGaussianBlur stdDeviation="3" result="effect1_foregroundBlur_2329_1703"/>
</filter>
<filter id="filter40_f_2329_1703" x="1650.96" y="2075" width="89.0781" height="106" filterUnits="userSpaceOnUse" color-interpolation-filters="sRGB">
<feFlood flood-opacity="0" result="BackgroundImageFix"/>
<feBlend mode="normal" in="SourceGraphic" in2="BackgroundImageFix" result="shape"/>
<feGaussianBlur stdDeviation="3" result="effect1_foregroundBlur_2329_1703"/>
</filter>
<filter id="filter41_f_2329_1703" x="1873.96" y="1941" width="89.0781" height="106" filterUnits="userSpaceOnUse" color-interpolation-filters="sRGB">
<feFlood flood-opacity="0" result="BackgroundImageFix"/>
<feBlend mode="normal" in="SourceGraphic" in2="BackgroundImageFix" result="shape"/>
<feGaussianBlur stdDeviation="3" result="effect1_foregroundBlur_2329_1703"/>
</filter>
<filter id="filter42_f_2329_1703" x="2811" y="694" width="149.697" height="178" filterUnits="userSpaceOnUse" color-interpolation-filters="sRGB">
<feFlood flood-opacity="0" result="BackgroundImageFix"/>
<feBlend mode="normal" in="SourceGraphic" in2="BackgroundImageFix" result="shape"/>
<feGaussianBlur stdDeviation="3" result="effect1_foregroundBlur_2329_1703"/>
</filter>
<filter id="filter43_f_2329_1703" x="2746" y="484" width="111" height="131" filterUnits="userSpaceOnUse" color-interpolation-filters="sRGB">
<feFlood flood-opacity="0" result="BackgroundImageFix"/>
<feBlend mode="normal" in="SourceGraphic" in2="BackgroundImageFix" result="shape"/>
<feGaussianBlur stdDeviation="3" result="effect1_foregroundBlur_2329_1703"/>
</filter>
<filter id="filter44_f_2329_1703" x="2891" y="124" width="149.697" height="178" filterUnits="userSpaceOnUse" color-interpolation-filters="sRGB">
<feFlood flood-opacity="0" result="BackgroundImageFix"/>
<feBlend mode="normal" in="SourceGraphic" in2="BackgroundImageFix" result="shape"/>
<feGaussianBlur stdDeviation="3" result="effect1_foregroundBlur_2329_1703"/>
</filter>
<filter id="filter45_f_2329_1703" x="2489" y="124" width="172" height="204" filterUnits="userSpaceOnUse" color-interpolation-filters="sRGB">
<feFlood flood-opacity="0" result="BackgroundImageFix"/>
<feBlend mode="normal" in="SourceGraphic" in2="BackgroundImageFix" result="shape"/>
<feGaussianBlur stdDeviation="3" result="effect1_foregroundBlur_2329_1703"/>
</filter>
<filter id="filter46_f_2329_1703" x="2668" y="1068" width="172" height="204" filterUnits="userSpaceOnUse" color-interpolation-filters="sRGB">
<feFlood flood-opacity="0" result="BackgroundImageFix"/>
<feBlend mode="normal" in="SourceGraphic" in2="BackgroundImageFix" result="shape"/>
<feGaussianBlur stdDeviation="3" result="effect1_foregroundBlur_2329_1703"/>
</filter>
<filter id="filter47_f_2329_1703" x="1869" y="159" width="172" height="204" filterUnits="userSpaceOnUse" color-interpolation-filters="sRGB">
<feFlood flood-opacity="0" result="BackgroundImageFix"/>
<feBlend mode="normal" in="SourceGraphic" in2="BackgroundImageFix" result="shape"/>
<feGaussianBlur stdDeviation="3" result="effect1_foregroundBlur_2329_1703"/>
</filter>
<filter id="filter48_f_2329_1703" x="1558" y="554" width="232" height="276" filterUnits="userSpaceOnUse" color-interpolation-filters="sRGB">
<feFlood flood-opacity="0" result="BackgroundImageFix"/>
<feBlend mode="normal" in="SourceGraphic" in2="BackgroundImageFix" result="shape"/>
<feGaussianBlur stdDeviation="3" result="effect1_foregroundBlur_2329_1703"/>
</filter>
<filter id="filter49_f_2329_1703" x="1735" y="1141" width="146" height="173" filterUnits="userSpaceOnUse" color-interpolation-filters="sRGB">
<feFlood flood-opacity="0" result="BackgroundImageFix"/>
<feBlend mode="normal" in="SourceGraphic" in2="BackgroundImageFix" result="shape"/>
<feGaussianBlur stdDeviation="3" result="effect1_foregroundBlur_2329_1703"/>
</filter>
<filter id="filter50_f_2329_1703" x="2543.49" y="1174" width="83.0156" height="98" filterUnits="userSpaceOnUse" color-interpolation-filters="sRGB">
<feFlood flood-opacity="0" result="BackgroundImageFix"/>
<feBlend mode="normal" in="SourceGraphic" in2="BackgroundImageFix" result="shape"/>
<feGaussianBlur stdDeviation="3" result="effect1_foregroundBlur_2329_1703"/>
</filter>
<filter id="filter51_f_2329_1703" x="2751.49" y="936" width="83.0156" height="98" filterUnits="userSpaceOnUse" color-interpolation-filters="sRGB">
<feFlood flood-opacity="0" result="BackgroundImageFix"/>
<feBlend mode="normal" in="SourceGraphic" in2="BackgroundImageFix" result="shape"/>
<feGaussianBlur stdDeviation="3" result="effect1_foregroundBlur_2329_1703"/>
</filter>
<filter id="filter52_f_2329_1703" x="2896.49" y="1153" width="83.0156" height="98" filterUnits="userSpaceOnUse" color-interpolation-filters="sRGB">
<feFlood flood-opacity="0" result="BackgroundImageFix"/>
<feBlend mode="normal" in="SourceGraphic" in2="BackgroundImageFix" result="shape"/>
<feGaussianBlur stdDeviation="3" result="effect1_foregroundBlur_2329_1703"/>
</filter>
<filter id="filter53_f_2329_1703" x="2751.49" y="124" width="83.0156" height="98" filterUnits="userSpaceOnUse" color-interpolation-filters="sRGB">
<feFlood flood-opacity="0" result="BackgroundImageFix"/>
<feBlend mode="normal" in="SourceGraphic" in2="BackgroundImageFix" result="shape"/>
<feGaussianBlur stdDeviation="3" result="effect1_foregroundBlur_2329_1703"/>
</filter>
<filter id="filter54_f_2329_1703" x="2083.49" y="134" width="83.0156" height="98" filterUnits="userSpaceOnUse" color-interpolation-filters="sRGB">
<feFlood flood-opacity="0" result="BackgroundImageFix"/>
<feBlend mode="normal" in="SourceGraphic" in2="BackgroundImageFix" result="shape"/>
<feGaussianBlur stdDeviation="3" result="effect1_foregroundBlur_2329_1703"/>
</filter>
<filter id="filter55_f_2329_1703" x="1632.49" y="351" width="83.0156" height="98" filterUnits="userSpaceOnUse" color-interpolation-filters="sRGB">
<feFlood flood-opacity="0" result="BackgroundImageFix"/>
<feBlend mode="normal" in="SourceGraphic" in2="BackgroundImageFix" result="shape"/>
<feGaussianBlur stdDeviation="3" result="effect1_foregroundBlur_2329_1703"/>
</filter>
<filter id="filter56_f_2329_1703" x="1624.49" y="985" width="83.0156" height="98" filterUnits="userSpaceOnUse" color-interpolation-filters="sRGB">
<feFlood flood-opacity="0" result="BackgroundImageFix"/>
<feBlend mode="normal" in="SourceGraphic" in2="BackgroundImageFix" result="shape"/>
<feGaussianBlur stdDeviation="3" result="effect1_foregroundBlur_2329_1703"/>
</filter>
<filter id="filter57_f_2329_1703" x="2096.89" y="1111" width="256.277" height="309.124" filterUnits="userSpaceOnUse" color-interpolation-filters="sRGB">
<feFlood flood-opacity="0" result="BackgroundImageFix"/>
<feBlend mode="normal" in="SourceGraphic" in2="BackgroundImageFix" result="shape"/>
<feGaussianBlur stdDeviation="3" result="effect1_foregroundBlur_2329_1703"/>
</filter>
<filter id="filter58_f_2329_1703" x="2548.65" y="877" width="149.699" height="180" filterUnits="userSpaceOnUse" color-interpolation-filters="sRGB">
<feFlood flood-opacity="0" result="BackgroundImageFix"/>
<feBlend mode="normal" in="SourceGraphic" in2="BackgroundImageFix" result="shape"/>
<feGaussianBlur stdDeviation="3" result="effect1_foregroundBlur_2329_1703"/>
</filter>
<filter id="filter59_f_2329_1703" x="2516.96" y="507" width="89.0781" height="106" filterUnits="userSpaceOnUse" color-interpolation-filters="sRGB">
<feFlood flood-opacity="0" result="BackgroundImageFix"/>
<feBlend mode="normal" in="SourceGraphic" in2="BackgroundImageFix" result="shape"/>
<feGaussianBlur stdDeviation="3" result="effect1_foregroundBlur_2329_1703"/>
</filter>
<filter id="filter60_f_2329_1703" x="1846.96" y="437" width="89.0781" height="106" filterUnits="userSpaceOnUse" color-interpolation-filters="sRGB">
<feFlood flood-opacity="0" result="BackgroundImageFix"/>
<feBlend mode="normal" in="SourceGraphic" in2="BackgroundImageFix" result="shape"/>
<feGaussianBlur stdDeviation="3" result="effect1_foregroundBlur_2329_1703"/>
</filter>
<filter id="filter61_f_2329_1703" x="1757.96" y="941" width="89.0781" height="106" filterUnits="userSpaceOnUse" color-interpolation-filters="sRGB">
<feFlood flood-opacity="0" result="BackgroundImageFix"/>
<feBlend mode="normal" in="SourceGraphic" in2="BackgroundImageFix" result="shape"/>
<feGaussianBlur stdDeviation="3" result="effect1_foregroundBlur_2329_1703"/>
</filter>
<filter id="filter62_f_2329_1703" x="1980.96" y="807" width="89.0781" height="106" filterUnits="userSpaceOnUse" color-interpolation-filters="sRGB">
<feFlood flood-opacity="0" result="BackgroundImageFix"/>
<feBlend mode="normal" in="SourceGraphic" in2="BackgroundImageFix" result="shape"/>
<feGaussianBlur stdDeviation="3" result="effect1_foregroundBlur_2329_1703"/>
</filter>
<filter id="filter63_f_2329_1703" x="1340" y="570" width="149.697" height="178" filterUnits="userSpaceOnUse" color-interpolation-filters="sRGB">
<feFlood flood-opacity="0" result="BackgroundImageFix"/>
<feBlend mode="normal" in="SourceGraphic" in2="BackgroundImageFix" result="shape"/>
<feGaussianBlur stdDeviation="3" result="effect1_foregroundBlur_2329_1703"/>
</filter>
<filter id="filter64_f_2329_1703" x="1275" y="360" width="111" height="131" filterUnits="userSpaceOnUse" color-interpolation-filters="sRGB">
<feFlood flood-opacity="0" result="BackgroundImageFix"/>
<feBlend mode="normal" in="SourceGraphic" in2="BackgroundImageFix" result="shape"/>
<feGaussianBlur stdDeviation="3" result="effect1_foregroundBlur_2329_1703"/>
</filter>
<filter id="filter65_f_2329_1703" x="1420" y="0" width="149.697" height="178" filterUnits="userSpaceOnUse" color-interpolation-filters="sRGB">
<feFlood flood-opacity="0" result="BackgroundImageFix"/>
<feBlend mode="normal" in="SourceGraphic" in2="BackgroundImageFix" result="shape"/>
<feGaussianBlur stdDeviation="3" result="effect1_foregroundBlur_2329_1703"/>
</filter>
<filter id="filter66_f_2329_1703" x="1018" y="0" width="172" height="204" filterUnits="userSpaceOnUse" color-interpolation-filters="sRGB">
<feFlood flood-opacity="0" result="BackgroundImageFix"/>
<feBlend mode="normal" in="SourceGraphic" in2="BackgroundImageFix" result="shape"/>
<feGaussianBlur stdDeviation="3" result="effect1_foregroundBlur_2329_1703"/>
</filter>
<filter id="filter67_f_2329_1703" x="1197" y="944" width="172" height="204" filterUnits="userSpaceOnUse" color-interpolation-filters="sRGB">
<feFlood flood-opacity="0" result="BackgroundImageFix"/>
<feBlend mode="normal" in="SourceGraphic" in2="BackgroundImageFix" result="shape"/>
<feGaussianBlur stdDeviation="3" result="effect1_foregroundBlur_2329_1703"/>
</filter>
<filter id="filter68_f_2329_1703" x="398" y="35" width="172" height="204" filterUnits="userSpaceOnUse" color-interpolation-filters="sRGB">
<feFlood flood-opacity="0" result="BackgroundImageFix"/>
<feBlend mode="normal" in="SourceGraphic" in2="BackgroundImageFix" result="shape"/>
<feGaussianBlur stdDeviation="3" result="effect1_foregroundBlur_2329_1703"/>
</filter>
<filter id="filter69_f_2329_1703" x="87" y="430" width="232" height="276" filterUnits="userSpaceOnUse" color-interpolation-filters="sRGB">
<feFlood flood-opacity="0" result="BackgroundImageFix"/>
<feBlend mode="normal" in="SourceGraphic" in2="BackgroundImageFix" result="shape"/>
<feGaussianBlur stdDeviation="3" result="effect1_foregroundBlur_2329_1703"/>
</filter>
<filter id="filter70_f_2329_1703" x="264" y="1017" width="146" height="173" filterUnits="userSpaceOnUse" color-interpolation-filters="sRGB">
<feFlood flood-opacity="0" result="BackgroundImageFix"/>
<feBlend mode="normal" in="SourceGraphic" in2="BackgroundImageFix" result="shape"/>
<feGaussianBlur stdDeviation="3" result="effect1_foregroundBlur_2329_1703"/>
</filter>
<filter id="filter71_f_2329_1703" x="1072.49" y="1050" width="83.0156" height="98" filterUnits="userSpaceOnUse" color-interpolation-filters="sRGB">
<feFlood flood-opacity="0" result="BackgroundImageFix"/>
<feBlend mode="normal" in="SourceGraphic" in2="BackgroundImageFix" result="shape"/>
<feGaussianBlur stdDeviation="3" result="effect1_foregroundBlur_2329_1703"/>
</filter>
<filter id="filter72_f_2329_1703" x="1280.49" y="812" width="83.0156" height="98" filterUnits="userSpaceOnUse" color-interpolation-filters="sRGB">
<feFlood flood-opacity="0" result="BackgroundImageFix"/>
<feBlend mode="normal" in="SourceGraphic" in2="BackgroundImageFix" result="shape"/>
<feGaussianBlur stdDeviation="3" result="effect1_foregroundBlur_2329_1703"/>
</filter>
<filter id="filter73_f_2329_1703" x="1425.49" y="1029" width="83.0156" height="98" filterUnits="userSpaceOnUse" color-interpolation-filters="sRGB">
<feFlood flood-opacity="0" result="BackgroundImageFix"/>
<feBlend mode="normal" in="SourceGraphic" in2="BackgroundImageFix" result="shape"/>
<feGaussianBlur stdDeviation="3" result="effect1_foregroundBlur_2329_1703"/>
</filter>
<filter id="filter74_f_2329_1703" x="1280.49" y="0" width="83.0156" height="98" filterUnits="userSpaceOnUse" color-interpolation-filters="sRGB">
<feFlood flood-opacity="0" result="BackgroundImageFix"/>
<feBlend mode="normal" in="SourceGraphic" in2="BackgroundImageFix" result="shape"/>
<feGaussianBlur stdDeviation="3" result="effect1_foregroundBlur_2329_1703"/>
</filter>
<filter id="filter75_f_2329_1703" x="612.492" y="10" width="83.0156" height="98" filterUnits="userSpaceOnUse" color-interpolation-filters="sRGB">
<feFlood flood-opacity="0" result="BackgroundImageFix"/>
<feBlend mode="normal" in="SourceGraphic" in2="BackgroundImageFix" result="shape"/>
<feGaussianBlur stdDeviation="3" result="effect1_foregroundBlur_2329_1703"/>
</filter>
<filter id="filter76_f_2329_1703" x="161.492" y="227" width="83.0156" height="98" filterUnits="userSpaceOnUse" color-interpolation-filters="sRGB">
<feFlood flood-opacity="0" result="BackgroundImageFix"/>
<feBlend mode="normal" in="SourceGraphic" in2="BackgroundImageFix" result="shape"/>
<feGaussianBlur stdDeviation="3" result="effect1_foregroundBlur_2329_1703"/>
</filter>
<filter id="filter77_f_2329_1703" x="153.492" y="861" width="83.0156" height="98" filterUnits="userSpaceOnUse" color-interpolation-filters="sRGB">
<feFlood flood-opacity="0" result="BackgroundImageFix"/>
<feBlend mode="normal" in="SourceGraphic" in2="BackgroundImageFix" result="shape"/>
<feGaussianBlur stdDeviation="3" result="effect1_foregroundBlur_2329_1703"/>
</filter>
<filter id="filter78_f_2329_1703" x="625.895" y="987" width="256.277" height="309.124" filterUnits="userSpaceOnUse" color-interpolation-filters="sRGB">
<feFlood flood-opacity="0" result="BackgroundImageFix"/>
<feBlend mode="normal" in="SourceGraphic" in2="BackgroundImageFix" result="shape"/>
<feGaussianBlur stdDeviation="3" result="effect1_foregroundBlur_2329_1703"/>
</filter>
<filter id="filter79_f_2329_1703" x="1077.65" y="753" width="149.699" height="180" filterUnits="userSpaceOnUse" color-interpolation-filters="sRGB">
<feFlood flood-opacity="0" result="BackgroundImageFix"/>
<feBlend mode="normal" in="SourceGraphic" in2="BackgroundImageFix" result="shape"/>
<feGaussianBlur stdDeviation="3" result="effect1_foregroundBlur_2329_1703"/>
</filter>
<filter id="filter80_f_2329_1703" x="1045.96" y="383" width="89.0781" height="106" filterUnits="userSpaceOnUse" color-interpolation-filters="sRGB">
<feFlood flood-opacity="0" result="BackgroundImageFix"/>
<feBlend mode="normal" in="SourceGraphic" in2="BackgroundImageFix" result="shape"/>
<feGaussianBlur stdDeviation="3" result="effect1_foregroundBlur_2329_1703"/>
</filter>
<filter id="filter81_f_2329_1703" x="375.961" y="313" width="89.0781" height="106" filterUnits="userSpaceOnUse" color-interpolation-filters="sRGB">
<feFlood flood-opacity="0" result="BackgroundImageFix"/>
<feBlend mode="normal" in="SourceGraphic" in2="BackgroundImageFix" result="shape"/>
<feGaussianBlur stdDeviation="3" result="effect1_foregroundBlur_2329_1703"/>
</filter>
<filter id="filter82_f_2329_1703" x="286.961" y="817" width="89.0781" height="106" filterUnits="userSpaceOnUse" color-interpolation-filters="sRGB">
<feFlood flood-opacity="0" result="BackgroundImageFix"/>
<feBlend mode="normal" in="SourceGraphic" in2="BackgroundImageFix" result="shape"/>
<feGaussianBlur stdDeviation="3" result="effect1_foregroundBlur_2329_1703"/>
</filter>
<filter id="filter83_f_2329_1703" x="509.961" y="683" width="89.0781" height="106" filterUnits="userSpaceOnUse" color-interpolation-filters="sRGB">
<feFlood flood-opacity="0" result="BackgroundImageFix"/>
<feBlend mode="normal" in="SourceGraphic" in2="BackgroundImageFix" result="shape"/>
<feGaussianBlur stdDeviation="3" result="effect1_foregroundBlur_2329_1703"/>
</filter>
</defs>
</svg>
