<svg width="100" height="100" viewBox="0 0 100 100" fill="none" xmlns="http://www.w3.org/2000/svg">
<g clip-path="url(#clip0_76_70)">
<path fill-rule="evenodd" clip-rule="evenodd" d="M50.1727 89.8217C72.1162 89.8217 89.9049 71.4377 89.9049 48.7602C89.9049 26.0824 72.1162 7.69849 50.1727 7.69849C28.2291 7.69849 10.4404 26.0824 10.4404 48.7602C10.4404 71.4377 28.2291 89.8217 50.1727 89.8217ZM50.1732 78.623C66.132 78.623 79.0692 65.2529 79.0692 48.7599C79.0692 32.2671 66.132 18.897 50.1732 18.897C34.2141 18.897 21.277 32.2671 21.277 48.7599C21.277 65.2529 34.2141 78.623 50.1732 78.623Z" fill="black"/>
<path d="M30.4296 2.56592L23.5479 6.67207L26.3329 23.9758L43.5375 13.7104L30.4296 2.56592Z" fill="black"/>
<path d="M30.4296 94.807L23.5479 90.7008L26.3329 73.3972L43.5375 83.6626L30.4296 94.807Z" fill="black"/>
<path d="M5.47461 27.6055L9.44783 20.4934L26.1914 23.3717L16.2584 41.152L5.47461 27.6055Z" fill="black"/>
<path d="M94.7286 69.7674L90.7555 76.8796L74.0117 74.0013L83.945 56.2212L94.7286 69.7674Z" fill="black"/>
<path d="M71.2268 2.56592L78.1086 6.67207L75.3236 23.9758L58.1191 13.7104L71.2268 2.56592Z" fill="black"/>
<path d="M47.3681 -1H55.3145L61.2744 15.4246H41.4082L47.3681 -1Z" fill="black"/>
<path d="M47.3681 98.9919H55.3145L61.2744 82.5674H41.4082L47.3681 98.9919Z" fill="black"/>
<path d="M99.9998 52.0664V43.854L84.1069 37.6948V58.2256L99.9998 52.0664Z" fill="black"/>
<path d="M3.4735e-07 43.854L0 52.0664L15.8929 58.2256V37.6948L3.4735e-07 43.854Z" fill="black"/>
<path d="M71.2268 94.807L78.1086 90.7008L75.3236 73.3972L58.1191 83.6626L71.2268 94.807Z" fill="black"/>
<path d="M5.47363 69.7674L9.44688 76.8796L26.1904 74.0013L16.2574 56.2212L5.47363 69.7674Z" fill="black"/>
<path d="M94.7293 27.6055L90.7562 20.4934L74.0127 23.3717L83.9457 41.1517L94.7293 27.6055Z" fill="black"/>
</g>
<defs>
<clipPath id="clip0_76_70">
<rect width="100" height="100" fill="white"/>
</clipPath>
</defs>
</svg>
