<svg width="222" height="156" viewBox="0 0 222 156" fill="none" xmlns="http://www.w3.org/2000/svg">
<path d="M199.5 22.1667V133H22.1667V22.1667H199.5ZM199.5 0H22.1667C9.975 0 0.110833 9.975 0.110833 22.1667L0 133C0 145.192 9.975 155.167 22.1667 155.167H199.5C211.692 155.167 221.667 145.192 221.667 133V22.1667C221.667 9.975 211.692 0 199.5 0ZM99.75 33.25H121.917V55.4167H99.75V33.25ZM99.75 66.5H121.917V88.6667H99.75V66.5ZM66.5 33.25H88.6667V55.4167H66.5V33.25ZM66.5 66.5H88.6667V88.6667H66.5V66.5ZM33.25 66.5H55.4167V88.6667H33.25V66.5ZM33.25 33.25H55.4167V55.4167H33.25V33.25ZM66.5 99.75H155.167V121.917H66.5V99.75ZM133 66.5H155.167V88.6667H133V66.5ZM133 33.25H155.167V55.4167H133V33.25ZM166.25 66.5H188.417V88.6667H166.25V66.5ZM166.25 33.25H188.417V55.4167H166.25V33.25Z" fill="black"/>
</svg>
