<svg width="66" height="66" viewBox="0 0 66 66" fill="none" xmlns="http://www.w3.org/2000/svg">
<path d="M61.2857 37.7143H37.7143V61.2857C37.7143 62.536 37.2176 63.7351 36.3335 64.6192C35.4494 65.5033 34.2503 66 33 66C31.7497 66 30.5506 65.5033 29.6665 64.6192C28.7824 63.7351 28.2857 62.536 28.2857 61.2857V37.7143H4.71429C3.46398 37.7143 2.26488 37.2176 1.38078 36.3335C0.496683 35.4494 0 34.2503 0 33C0 31.7497 0.496683 30.5506 1.38078 29.6665C2.26488 28.7824 3.46398 28.2857 4.71429 28.2857H28.2857V4.71429C28.2857 3.46398 28.7824 2.26488 29.6665 1.38078C30.5506 0.496681 31.7497 0 33 0C34.2503 0 35.4494 0.496681 36.3335 1.38078C37.2176 2.26488 37.7143 3.46398 37.7143 4.71429V28.2857H61.2857C62.536 28.2857 63.7351 28.7824 64.6192 29.6665C65.5033 30.5506 66 31.7497 66 33C66 34.2503 65.5033 35.4494 64.6192 36.3335C63.7351 37.2176 62.536 37.7143 61.2857 37.7143Z" fill="black"/>
</svg>
