<svg width="269" height="137" viewBox="0 0 269 137" fill="none" xmlns="http://www.w3.org/2000/svg">
<path d="M18.5 137C15.1083 137 11.9736 136.17 9.09583 134.511C6.32083 132.852 4.11111 130.622 2.46667 127.822C0.822222 124.919 0 121.756 0 118.333V43.6667C0 40.2444 0.822222 37.1333 2.46667 34.3333C4.11111 31.4296 6.32083 29.1481 9.09583 27.4889C11.9736 25.8296 15.1083 25 18.5 25H92.5C95.8917 25 98.975 25.8296 101.75 27.4889C104.628 29.1481 106.889 31.4296 108.533 34.3333C110.178 37.1333 111 40.2444 111 43.6667V118.333C111 121.756 110.178 124.919 108.533 127.822C106.889 130.622 104.628 132.852 101.75 134.511C98.975 136.17 95.8917 137 92.5 137H18.5ZM18.5 124.4H92.5C94.1444 124.4 95.5319 123.83 96.6625 122.689C97.8958 121.444 98.5125 119.993 98.5125 118.333V43.6667C98.5125 42.0074 97.8958 40.6074 96.6625 39.4667C95.5319 38.2222 94.1444 37.6 92.5 37.6H18.5C16.8556 37.6 15.4167 38.2222 14.1833 39.4667C13.0528 40.6074 12.4875 42.0074 12.4875 43.6667V118.333C12.4875 119.993 13.0528 121.444 14.1833 122.689C15.4167 123.83 16.8556 124.4 18.5 124.4Z" fill="#1F1E20"/>
<path d="M150.667 137C146.328 137 142.318 135.985 138.636 133.956C135.086 131.926 132.259 129.199 130.156 125.774C128.052 122.222 127 118.353 127 114.167V22.8333C127 18.6472 128.052 14.8417 130.156 11.4167C132.259 7.86482 135.086 5.07407 138.636 3.04444C142.318 1.01481 146.328 0 150.667 0H245.333C249.672 0 253.617 1.01481 257.167 3.04444C260.848 5.07407 263.741 7.86482 265.844 11.4167C267.948 14.8417 269 18.6472 269 22.8333V28.3514H253.025V22.8333C253.025 20.8037 252.236 19.0912 250.658 17.6958C249.212 16.1736 247.437 15.4125 245.333 15.4125H150.667C148.563 15.4125 146.722 16.1736 145.144 17.6958C143.698 19.0912 142.975 20.8037 142.975 22.8333V114.167C142.975 116.196 143.698 117.972 145.144 119.494C146.722 120.89 148.563 121.588 150.667 121.588H245.333C247.437 121.588 249.212 120.89 250.658 119.494C252.236 117.972 253.025 116.196 253.025 114.167V80.2972H217.919V64.6945H269V114.167C269 118.353 267.948 122.222 265.844 125.774C263.741 129.199 260.848 131.926 257.167 133.956C253.617 135.985 249.672 137 245.333 137H150.667Z" fill="#1F1E20"/>
</svg>
