<svg width="29" height="29" viewBox="0 0 29 29" fill="none" xmlns="http://www.w3.org/2000/svg">
<path d="M14.5003 24.1667C17.0641 24.1667 19.5228 23.1483 21.3357 21.3354C23.1485 19.5226 24.167 17.0638 24.167 14.5001C24.167 11.9363 23.1485 9.47757 21.3357 7.66472C19.5228 5.85186 17.0641 4.83341 14.5003 4.83341C11.9366 4.83341 9.47781 5.85186 7.66496 7.66472C5.85211 9.47757 4.83366 11.9363 4.83366 14.5001C4.83366 17.0638 5.85211 19.5226 7.66496 21.3354C9.47781 23.1483 11.9366 24.1667 14.5003 24.1667ZM14.5003 2.41675C16.0871 2.41675 17.6584 2.72929 19.1244 3.33654C20.5904 3.94378 21.9225 4.83383 23.0445 5.95587C24.1666 7.07792 25.0566 8.40997 25.6639 9.87599C26.2711 11.342 26.5837 12.9133 26.5837 14.5001C26.5837 17.7048 25.3106 20.7782 23.0445 23.0443C20.7785 25.3104 17.705 26.5834 14.5003 26.5834C7.81824 26.5834 2.41699 21.1459 2.41699 14.5001C2.41699 11.2954 3.69005 8.22194 5.95612 5.95587C8.22218 3.68981 11.2956 2.41675 14.5003 2.41675ZM15.1045 8.45841V14.8022L20.542 18.0284L19.6357 19.5147L13.292 15.7084V8.45841H15.1045Z" fill="#36213E"/>
</svg>
