<svg width="44" height="44" viewBox="0 0 44 44" fill="none" xmlns="http://www.w3.org/2000/svg">
<path d="M22.002 1.46676L22.9553 0.352096C22.6896 0.124866 22.3515 0 22.002 0C21.6524 0 21.3143 0.124866 21.0486 0.352096L22.002 1.46676ZM1.46862 19.0667L0.515286 17.9521L0.00195312 18.3921V19.0667H1.46862ZM16.1353 42.5333V44C16.5243 44 16.8973 43.8455 17.1724 43.5704C17.4474 43.2954 17.602 42.9223 17.602 42.5333H16.1353ZM27.8686 42.5333H26.402C26.402 42.9223 26.5565 43.2954 26.8315 43.5704C27.1066 43.8455 27.4796 44 27.8686 44V42.5333ZM42.5353 19.0667H44.002V18.3921L43.4886 17.9521L42.5353 19.0667ZM4.40195 44H16.1353V41.0667H4.40195V44ZM43.4886 17.9521L22.9553 0.352096L21.0486 2.58142L41.582 20.1814L43.4886 17.9521ZM21.0486 0.352096L0.515286 17.9521L2.42195 20.1814L22.9553 2.58142L21.0486 0.352096ZM17.602 42.5333V33.7334H14.6686V42.5333H17.602ZM26.402 33.7334V42.5333H29.3353V33.7334H26.402ZM27.8686 44H39.602V41.0667H27.8686V44ZM44.002 39.6V19.0667H41.0686V39.6H44.002ZM0.00195312 19.0667V39.6H2.93529V19.0667H0.00195312ZM22.002 29.3334C23.1689 29.3334 24.2881 29.7969 25.1132 30.6221C25.9384 31.4473 26.402 32.5664 26.402 33.7334H29.3353C29.3353 31.7884 28.5627 29.9232 27.1874 28.5479C25.8121 27.1727 23.9469 26.4 22.002 26.4V29.3334ZM22.002 26.4C20.057 26.4 18.1918 27.1727 16.8165 28.5479C15.4412 29.9232 14.6686 31.7884 14.6686 33.7334H17.602C17.602 32.5664 18.0655 31.4473 18.8907 30.6221C19.7158 29.7969 20.835 29.3334 22.002 29.3334V26.4ZM39.602 44C40.7689 44 41.8881 43.5364 42.7132 42.7113C43.5384 41.8861 44.002 40.767 44.002 39.6H41.0686C41.0686 39.989 40.9141 40.362 40.639 40.6371C40.364 40.9121 39.9909 41.0667 39.602 41.0667V44ZM4.40195 41.0667C4.01297 41.0667 3.63992 40.9121 3.36486 40.6371C3.08981 40.362 2.93529 39.989 2.93529 39.6H0.00195312C0.00195313 40.767 0.465523 41.8861 1.29068 42.7113C2.11584 43.5364 3.235 44 4.40195 44V41.0667Z" fill="white"/>
</svg>
