<svg width="44" height="44" viewBox="0 0 44 44" fill="none" xmlns="http://www.w3.org/2000/svg">
<path d="M34.2222 38.5H44V33H34.2222V27.5L26.8889 35.75L34.2222 44V38.5ZM19.5556 0C14.1778 0 9.77778 4.95 9.77778 11C9.77778 17.05 14.1778 22 19.5556 22C24.9333 22 29.3333 17.05 29.3333 11C29.3333 4.95 24.9333 0 19.5556 0ZM19.5556 5.5C22.2444 5.5 24.4444 7.975 24.4444 11C24.4444 14.025 22.2444 16.5 19.5556 16.5C16.8667 16.5 14.6667 14.025 14.6667 11C14.6667 7.975 16.8667 5.5 19.5556 5.5ZM19.5556 24.75C12.9556 24.75 0 28.325 0 35.75V44H23.2222C22.4889 42.35 22.2444 40.7 22 38.775H4.64444V35.75C4.64444 34.1 12.2222 29.975 19.5556 29.975C20.7778 29.975 22 30.25 23.2222 30.25C23.9556 28.6 24.6889 26.95 25.9111 25.575C23.4667 25.025 21.2667 24.75 19.5556 24.75Z" fill="white"/>
</svg>
